<svg xmlns="http://www.w3.org/2000/svg" width="345" height="150">
        <g transform="scale(3)" >
            <g transform="translate(0, 0)">
                <svg x="0" y="0" width="43.30634415154334" height="50">
                    <svg xmlns="http://www.w3.org/2000/svg" viewBox="0 0 78.09 90.14">
                        <path fill="#4f9b43"
                            d="M78.09 8.81c-5.66 6.89-9.6 15-13.21 23.1-.13-.06-4.71 11.62-5.11 12.7 0 0 .8-2.3 1.21-3.45.55-1.41 1.12-2.82 1.69-4.22 3.68-8.85 7.5-17.32 12.71-25.4A88.87 88.87 0 0 0 69.55 21a97.85 97.85 0 0 1 7.7-12.92 65.4 65.4 0 0 0-7.76 11.39s2.92-5.54 4.58-8.19a77.89 77.89 0 0 0-4.84 7.5 85.31 85.31 0 0 1 7.2-11.48 65 65 0 0 0-5.93 8.5A138.17 138.17 0 0 0 63.66 29s-2.63 5.6-3.84 8.44c0 0 3.11-7.57 4.8-11.3 0 0 2.25-4.74 3.45-7.07 1.57-3 3.17-5.81 5-8.65 0 0-.57.8-.83 1.19 0 0 2.15-3.37 3.34-5a61.07 61.07 0 0 0-6.14 8.51s.78-1.42 1.18-2.13C65 21.69 61 30.5 57.23 40.09 55 45.92 53 51.68 51.08 57.64c0 0-2.37 7.15-3.48 10.74l-.33 1.09c.4-1.33 3-9.94 4.46-14.4 0 0 2.61-7.61 4-11.38 0 0 .47-1.24.71-1.85 1.43-3.6 2.89-7.16 4.42-10.72 3.8-8.65 7.74-17 13.19-24.77a75.24 75.24 0 0 0-8.86 13.53A115.53 115.53 0 0 1 71.31 9.1a90.93 90.93 0 0 0-5 8c1.57-2.93 3.15-5.67 5-8.44a94.87 94.87 0 0 0-6.64 10.92c.08-.16 2.69-5.34 4.14-7.88v.08s.79-1.31 1.19-1.95c-1.3 1.92-2.48 3.82-3.64 5.83A168.07 168.07 0 0 0 55.2 39s-2.06 5.51-2.2 6c0 0-2.2 5.93-3.23 8.92l-.33.93c0-.12 1.29-4 1.93-5.93 2.4-6.35 4.87-12.58 7.56-18.82 3.88-8.83 7.89-17.31 13.48-25.22a67.09 67.09 0 0 0-5.58 7.73A85 85 0 0 1 72 4.51a61.07 61.07 0 0 0-4.62 6.25c0-.08 1.45-2.36 2.2-3.49a109.55 109.55 0 0 0-9.35 16.24l-1 2a144.46 144.46 0 0 1 8.95-17 121 121 0 0 0-9.34 16.86 146.23 146.23 0 0 1 8.93-17 122.39 122.39 0 0 0-9.58 17.42s-1 2-1.46 3.06a164.9 164.9 0 0 1 9.84-19.63c-1.87 2.85-3.49 5.67-5.09 8.68a104.21 104.21 0 0 1 8.81-14.85c-5.05 6.07-8.52 12.35-12 19.41 2.15-4.68 4.35-9.11 6.92-13.58-1.62 2.41-3.07 4.81-4.48 7.35C62.39 13.05 64.06 10.06 66 7c-5.91 8.85-10 17.83-14 27.64-.09 0-4.09 10.81-4.45 11.82 0 0 .76-2.27 1.15-3.41q1.29-3.45 2.65-6.89a210.11 210.11 0 0 1 11.77-25.44 81.09 81.09 0 0 1 6.12-9.23 81.57 81.57 0 0 0-8.5 12.73s3.13-5.83 4.89-8.63a107.81 107.81 0 0 0-9.12 15.48c2.16-4.65 4.35-9 6.91-13.48-5.78 8.74-9.8 17.41-13.73 27.13 0 0 1.41-3.76 2.15-5.64 0 0-1.55 3.42-2.29 5.14 1.07-2.64 2.18-5.26 3.32-7.88C57.06 16.94 61.33 8.22 67.6 0a81.64 81.64 0 0 0-8.74 13.05c1.58-3 3.19-5.91 5-8.81-6.31 8.86-10.54 17.84-14.7 27.84-1.72 4.29-3.31 8.55-4.84 12.81-.34-5.64-.65-10.67-.7-11.67 0 0-1-14.11-1.68-21.14 0 0 .11 6.74.23 10.11 0 0-.29-3.86-.45-5.78 0 0 .23 6.14.37 9.2 0 0-.17-1.68-.26-2.51 0 0 .07 4.36.13 6.53v-.6s-.63-8.88-1.22-15.52l.13-.33c0 .06-.09.13-.14.2-.12-1.27-.23-2.45-.33-3.47 0 0 0 1.15.07 2.91a16.11 16.11 0 0 0-1 1.92v-.6l.53-1.46c-.22.34-.43.73-.64 1.12v-.3c.22-.64.39-1.24.27-1.31s-.21.12-.35.31c-.06-.8-.12-1.55-.17-2.19 0 0 0 1 .09 2.31-.13.18-.26.4-.4.64v-.53a4.43 4.43 0 0 0 .12-.5l-.14.19c0-.36-.06-.7-.08-1v1.08a13.07 13.07 0 0 0-1 1.58 15.24 15.24 0 0 0 .88-2.34c-.15 0-.74 1.21-.8 1.34l-.16.31c0-.44-.08-.86-.12-1.24.07-.17.12-.34.16-.47l-.12.19s.17-.54 0-.6-.85 1.1-.94 1.27c0 0 .11-.37.16-.56-.23.35-.46.74-.7 1.14 0-.57-.08-1.1-.12-1.55 0 0 0 .62.07 1.64-.13.22-.26.46-.38.69 0-.31-.05-.6-.07-.87v.92c-.46.85-.93 1.75-1.38 2.69v-.53l2.09-5.43c-.46.17-1.59 2.54-1.81 3 0-.05.88-2 1.16-2.94 0 0-.7 1.26-1 1.9 0 0 .59-1.38.79-2.07A27.33 27.33 0 0 0 34 13.33c.11-.29.6-1.62.8-2.35s.1-.27.14-.4-.52.92-.76 1.39c-.09.16-.17.33-.25.48-.05-.46-.09-.89-.13-1.31l.55-1.43c-.17 0-.42.43-.62.75v-.2a1.6 1.6 0 0 0 .14-.78c-.19 0-.51.61-.6.76 0 0 .16-.42.22-.64a21 21 0 0 0-1.12 2.05v-.36c.25-.62.47-1.2.62-1.66-.22.37-.44.77-.66 1.19v-.21.22c-.37.71-.73 1.46-1.08 2.2v-.1c.5-1.17 1.07-2.55 1.38-3.46-.5.83-1 1.78-1.45 2.74v-.4c.35-.87.68-1.7.91-2.34 0 0-.54 1-1 1.83v-.11a9.66 9.66 0 0 0 .83-2.66c-.58.27-2.44 4.32-2.73 5 0 0 1.24-3 1.64-4.49 0 0-.81 1.3-1.17 2 0-.05.69-1.63 1-2.44a108.45 108.45 0 0 0-5.05 10.74s-2.98 6.66-3.22 7.27l.86-2.29 1.8-4.21L29.7 9.16a7.87 7.87 0 0 0 .48-1.4 14 14 0 0 0-1.27 2.3 17.67 17.67 0 0 0 .68-2.13 29.3 29.3 0 0 0-2.47 4.46A46.23 46.23 0 0 0 28.71 8c-1.93 2.88-3.95 7.67-5.34 10.86 0 0 .77-2 1.14-3 0 0-.9 1.81-1.33 2.72 0 0 1.19-2.73 1.79-4.09l3.21-7.67a14 14 0 0 0-1.27 2.3A16 16 0 0 0 27.59 7c-1.61 2.11-4 7.7-5.07 10.19C17.87 28 13.64 38.86 9.59 49.92 5.89 60.19 2.75 70.14 0 80.7c0 0 3.26-10 5-14.93 0 0-1.77 5.72-2.6 8.59 0 0 2.95-9 4.51-13.41 0 0-.75 2.44-1.12 3.66 0 0 2.26-6.12 3.41-9.18l-.29.84C5.63 65.7 2.86 74.84.44 84.51c2.72-8.76 5.61-17.38 8.65-26l.12-.35s-2.15 6.8-3.14 10.23c0 0 2.23-6.2 3.37-9.29 0 0-1.73 5.32-2.54 8 0 0-3.52 11.5-5.05 17.32 0 0 2.46-8.14 3.76-12.19 0 0 1.69-4.88 2.55-7.31 0 0-3.74 12-5.37 18 0 0 3.43-11 5.27-16.53 0 0-.4 1.26-.59 1.89 3.29-9.59 6.76-19 10.43-28.46l.55-1.43s.45-1 .67-1.58l-.69 1.75C15 47.43 11.87 56.2 9 65.28c0 0-2.18 7-3.19 10.46 0 0 1-3 1.49-4.57 0 0-2.29 8-3.31 12 2.92-9.27 6-18.37 9.31-27.51 0 0-2.5 7.67-3.65 11.54 0 0 2.52-6.94 3.81-10.4 0 0-3.56 10.92-5.13 16.44 0 0-2 6.93-3 10.42 2.35-7.78 4.86-15.42 7.53-23.1l.56-1.56c-2.58 7.55-4.91 15-7 22.68 0 0 3.88-12.24 6-18.32 0 .11-.95 3-1.4 4.41 0 0 2.76-7.84 4.19-11.75-2.51 7.07-4.69 14.08-6.68 21.34 0 0 3.57-10.4 5.42-15.57 0 0-2.45 7.55-3.58 11.36 0 0 .78-2.35 1.18-3.52C9.77 75.41 8.17 81.12 6.73 87c0 0 3.92-12.35 6-18.49l-.14.5s.77-2.13 1.16-3.19c0 0-3.58 11.37-5.15 17.12 0 0 3.7-11.73 5.69-17.55l1.28-3.48s-3.34 10.57-4.79 15.92c0 0-1.62 5.67-2.37 8.53 0 0 4-13.15 6.25-19.67 0 0 4.2-11.67 6.37-17.48v-.1c-3.11 8.44-5.92 16.77-8.5 25.39 0 0 1.36-4.08 2.06-6.12 0 0-.45 1.43-.67 2.15 0 0 2.07-6 3.16-9-2.89 8.56-5.38 16.9-7.56 25.68 2.71-8.72 5.59-17.3 8.61-25.92 0 0-2.13 6.73-3.11 10.13l1.56-4.34s-2.26 7.18-3.3 10.8c0 0 1.79-5.5 2.72-8.24l-.08.27s-2.83 9.55-4.06 14.38c0 0 5.68-17.11 8.73-25.59 0 0-2.14 6.63-3.13 10 0 0 .8-2.19 1.21-3.28 0 .1-.92 2.85-1.36 4.25 0 0 1.77-5.06 2.68-7.58-2.48 7.28-4.71 14.47-6.76 21.88 0 0 1.78-5.71 2.71-8.56l-.16.54s4.87-13.72 7.41-20.53c0 0-3 8.64-4.35 13 0 0 6.2-17.09 9.56-25.69v.4c-.51 1.31-1 2.61-1.53 3.92-3.6 9.51-6.81 18.86-9.74 28.59 3.2-9.58 6.59-19 10.18-28.42 0 0 .44-1.2 1.16-3 .37 5.67 1.13 16.16 1.24 17.5 0 .67.07 1.34.11 2-.19 0 1.49 19.3 1.68 21.14 0 0-.08-4.83-.14-7.24 0 0 .32 4.61.61 8.47 0 .29-.07.57-.08.81 0-.07.08-.16.12-.25.07.91.14 1.76.19 2.48 0 0 0-1-.11-2.65.26-.6.52-1.37.76-2.11v.37c-.09.39-.17.77-.23 1.06l.38-.9c.14 1.51.27 3 .39 4.1v-1.6a9.21 9.21 0 0 0 .87-2.15c.1 1.39.21 2.73.29 3.78 0 0-.07-2-.16-4.18.2-.63.41-1.31.62-2 0 .32 0 .63.07.92v.17-.11c0 .35.06.69.08 1v-1.1c0 .19 0 .61.11 1.15a19.25 19.25 0 0 0-.58 2.88 15.88 15.88 0 0 0 .66-2c0 .24 0 .48.07.73-.1.49-.17.94-.21 1.29.09-.2.18-.44.27-.69.07.69.13 1.37.19 1.89v-2.33c.36-1.11.7-2.46 1-3.36l-.19.81c.07-.22.13-.45.2-.67 0 .55.09 1.07.14 1.55-.15.63-.3 1.29-.4 1.77 0 0 .29-.89.43-1.37a14.76 14.76 0 0 0-.41 2.67 10.71 10.71 0 0 0 .54-1.28c.06.69.11 1.19.13 1.42V86.5c.2-.58.43-1.26.66-2V84.43c0-.41.25-.81.37-1.23v-.06c.19-.63.38-1.28.56-1.91v.55c-.17.74-.33 1.45-.45 2 0 0 .21-.63.49-1.52l.09 1c-.25 1.09-.48 2.15-.63 3a16.57 16.57 0 0 0-.42 2.14 32.7 32.7 0 0 0 1.18-3.61v.17c-.31 1.26-.57 2.47-.69 3.34 0 0 .34-1.13.76-2.5.11 1.17.18 2 .22 2.35v-2.9c.08-.28.17-.56.25-.85 0 .52.1 1 .14 1.56-.12.63-.22 1.22-.29 1.73.13-.32.24-.65.36-1 0 .53.1 1 .14 1.45V86.4c.5-1.4.95-2.87 1.38-4.29v.14c-.3 1.21-.78 3.11-1 4.28 0 0 .28-.89.41-1.34 0 0-.91 3.75-.61 3.84.35-.1 1.41-3.85 1.53-4.25v.23c0 .07.12-.34.25-.73v.14a41.73 41.73 0 0 0-1 4.55c.39-1 .76-2.28 1.1-3.5 0 .29 0 .59.08.87-.14.67-.25 1.32-.33 1.84a6.49 6.49 0 0 0-.18 1.19 12.58 12.58 0 0 0 .62-1.82l.06.56v-.68c.41-1.36.85-3 1-3.38 0 0 .17-.55.43-1.43q0 .36.06.75a258.7 258.7 0 0 0-1 4c0-.06.5-1.64.74-2.44 0 0-.15.64-.23 1 0 0 .23-.73.51-1.67v.38c-.57 2.28-1.16 4.91-.93 5.1a11.29 11.29 0 0 0 1.1-2.82c0 .57.09 1.12.13 1.58 0 0 0-.7-.07-1.76.72-2.29 1.5-5.11 1.64-5.63 0 0-.85 3.56-1.19 5.36 0 0 .46-1.32.68-2 0 0-.7 2.79-1 4.2 0 0 .61-2 .89-2.93v.11a24.24 24.24 0 0 0-.92 4.06A35.33 35.33 0 0 0 45.72 85l.13 1.89c-.29 1.16-.53 2.29-.67 3.27 0 0 .42-1.28.62-1.91v.18l.15-.45V87.94c1.27-3.56 2.37-7.34 3.47-11 0 0-1.54 5.61-2.21 8.43 0 0 4.14-13.72 6.33-20.55 0 0 1.76-4.95 2.65-7.43q-2.07 6-4 12.08c-1.89 6.2-3.81 12.66-5.21 19 1.94-6.26 3.74-12.58 5.66-18.86 3-9.68 6.14-19.12 9.69-28.62.37-.94.74-1.87 1.12-2.8a183.13 183.13 0 0 1 12.39-25.55A77.58 77.58 0 0 0 71.12 20a83.1 83.1 0 0 1 6.97-11.19zm-37.65 4.37v.53c-.28.43-.54.9-.76 1.3.03-.01.51-1.15.76-1.83zM39.32 17c0 .54 0 1.06.06 1.5 0 0 .07 3.37.12 5.06 0 0-.2-2.81-.42-5.94zm-.08-1.94l-.3.65v-.49l.32-.75zm0-1.25v.24c-.11.23-.23.46-.34.68v-.06c.1-.24.18-.55.3-.86zM38.75 15l-.09.18zm-.08-2v.48c-.26.47-.49.94-.55 1s.33-.86.55-1.58zm.1 2.64v.49c-.23.48-.45 1-.65 1.42v-.34zm-.69 1.63v.37c0 .13-.05.13-.08.19v-.31zm-.37 3.9c.11 3.4.24 7 .36 9.6 0 0-.47-5.41-.74-8.12 0 0 .1 5 .17 7.45 0 0-.28-3.5-.58-6.95zm-.09-2.81v.31c-.31.69-.53 1.2-.6 1.36 0 0-.13.28-.32.71v-.17zm-.85-4.34s.4-.91.68-1.68v1.37c-.28.56-.72 1.48-1.16 2.39 0-.27 0-.56-.07-.85.23-.54.42-.99.55-1.33zm-.66 64.78c-.11.47-.33 1.39-.55 2.39v-.47c.25-.88.44-1.62.55-1.92zm-.62-1.23v-.13c.08-.27.17-.53.24-.76l-.14.55s-.05.16-.1.34zm.3-51.81c.08-.2.14-.35.19-.49.07 1.84.16 4.19.23 5.72 0 .01-.21-2.3-.42-5.23zm.29-.72v.63c.04-.03.02-.27 0-.67zm.06-9.59v.87c-.09.2-.19.39-.28.58v-.75zM36 22.2v.17l-.09.22-.3.7v-.16l.24-.56zm-.37-5.5l.13-.3v.78l-.41.89-.2.38v-.54c.14-.44.31-.86.45-1.21zm-.5 7.51v.21l-.1.23v-.2zm-.13-6v.57l-.36.71v-.38c.08-.27.2-.58.36-.87zm-.38.9v.42l-.08.16v-.35zm-.7 1.66V21c0 .11-.11.23-.17.34v-.12zm-.1-3.63v.41l-.3.64v-.26zm-.16-6.81v.18a2.86 2.86 0 0 0-.17.29zm0 1v1.43l-.51 1c0-.34-.05-.65-.08-.95zm-.2 10.51l-.23.48.23-.54zm-1.08-7.2v.6c-.3.61-.61 1.23-.9 1.86V17zm.23 5.36v.16l-.36.81v-.15c.11-.21.23-.49.35-.76zm-.44 1.17l-.28.64v-.11c.09-.21.19-.42.28-.64zm.08-9.88v.38c-.37.75-.73 1.52-1 2.2v-.07c.27-.72.65-1.61.99-2.45zm-1 11.78v.21l-.13.3a1.05 1.05 0 0 0-.1.19v-.18zM31 14.33v.12l-.41.81zm-.07-3v.09c-.09.17-.17.33-.23.46zm0 .72v.43c-.4.85-.79 1.7-1.15 2.5v-.19c.33-.79.75-1.79 1.14-2.73zm-1.15 9l-.69 1.58v.07-.08c.25-.54.49-1.09.73-1.63zm-.16-5.9v.19c-.14.27-.48.92-.66 1.29.04-.04.28-.63.65-1.49zm-1.35 9.24v.18c-.18.42-.35.84-.49 1.16v-.23zm-2 4.59l1.39-3.13a2.44 2.44 0 0 1 0 .27l-.09.23s-1.81 4.2-2.68 6.32l-.3.72zm0 6.91s-2.59 6.45-3.83 9.7l-.47 1.23c.31-.81 3.35-8.86 4.91-13l1-2.52v.37c-.88 2.09-1.53 3.86-1.66 4.21zM28.14 31v-.34l.36-.9v.34zm.14-6.43v-.17l.39-.86v.13c-.13.25-.26.56-.39.87zm.39 5.1v-.31l.15-.38v.34zm.19 12l.15-.35v.3l-.14.38zm.08 1.42l.14-.37c0 .5.05 1 .08 1.43 0 0 .07 3.77.12 5.65 0 0-.18-3.62-.34-6.71zm.46-15.3v-.36.32zm.36-.9v-.27c.06-.17.13-.33.19-.48v.3zM31 13.35v.07c-.27.57-.52 1.13-.77 1.66.03-.14.34-.84.77-1.73zM30.23 20l.13-.29v.05zm.22-.53c.23-.51.44-1 .63-1.43v.08l-.63 1.39zm.37 4.84v-.17zm1.29 61.14c-.2-4.67-.55-12.74-.82-17.54l-.57-9.17s.16 1.62.25 2.43.12 2 .17 3l1.33 19.43c-.15.64-.27 1.26-.36 1.82zm.4-2.06c-.08-2-.2-5.19-.29-7.12 0 0 .24 2.87.52 6.11-.08.32-.16.62-.23.98zm0-68.38v-.62l.58-1.51v1c-.16.35-.35.72-.54 1.12zm.4 4.45v-.14c.08-.2.17-.39.24-.56l.13-.32v.22zm.17 13c.08 1.7.16 3.37.23 4.65v.08c0-.09-.13-2-.3-4.56zm-.06 44.71s.11 1.25.26 2.82c0 .19-.11.39-.16.59.01-1.24-.02-2.43-.06-3.39zm.17 6l.2-.64s-.09.35-.2.81zm.07 3.35v-2.63c.1-.36.22-.74.33-1.12.06.53.11 1 .15 1.49-.21.97-.37 1.74-.44 2.33zm.35-17.38s-.07-4.15-.13-6.22c0 0 .36 5.51.58 8.27 0 0 .18 2.74.32 4.71-.13.46-.27.94-.4 1.44-.06-2.34-.22-5.92-.33-8.13zm.05 9.33v-1.03c-.03.07 0 .47.04 1.1zm.07 5.64v-1.84c.07-.22.14-.44.2-.66 0 .45.07.91.1 1.38s-.18.83-.26 1.19zm.39-3.28c.08-.28.16-.53.23-.76 0 0-.11.47-.22 1zm.06 1.4v-.88c.14-.41.32-1 .53-1.59v.46c-.14.7-.32 1.39-.49 2.08zm.83 1.29zm.3-10.86c-.13-4-.3-8-.52-12.06.06 0-.78-11.36-.87-12.41 0 0-.28-5.51-.44-8.27l-.06-1s.49 7.41.8 11.11c0 0 .35 5.35.54 8 0 0 .05.87.07 1.31q.16 3.81.38 7.64c-.06 0 .08 2.11.31 5-.05.16-.1.31-.14.47zm.06 8.52l.07-.24v.39c0 .13-.06.28-.1.42.08-.12.07-.32.07-.5zm0 1.3c.24-.72.53-1.6.78-2.38v.23c-.23.95-.54 2.23-.72 3 0 0 0 .14-.05.21zm.07 3.08v-.65c.22-.66.61-1.81.82-2.51-.15.86-.48 2.08-.75 3.23zm.73-63.89v-.17l.15-.36v.18zm.17 2.52l.1-.21c.05 1.26.11 2.45.16 3.44v1.14c.11.07-.01-1.78-.19-4.3zm.43 59.83v-1.67c.09-.28.17-.56.26-.84l.09 1.25c-.01.24-.12.72-.28 1.33zm.38-1.54v-1.35c0-.11.07-.23.11-.35 0 .38 0 .76.08 1.15-.02.25-.07.43-.12.62zm.14-16.5c-.08-1.78-.16-3.57-.26-5.36 0 0-.23-3.81-.25-4.16 0 0-.19-4.2-.3-6.3v-.67s.24 2.78.37 4.17q.18 6.09.52 12.16s.01.18-.01.23zm.11 15.54V80.3l.21-.68q0 .48.09.93c-.06.39-.15.71-.23 1.04zm.39-1.51v-1c0-.3.28-.91.41-1.37l.06.7c-.12.66-.26 1.17-.4 1.74zm1.15 1L39 81c0 .19 0 .4.06.65 0 .1-.05.21-.07.31.01-.31.01-.59.01-.86zm.06 3V84l.18-.65c.02.26-.05.5-.11.74zm-.4-60.47s-.15-1.94-.3-4l.57-1.45c.07 1.63.14 3.26.19 4.49 0 0-.06-.86-.1-1.3 0 0 .57 14.13 1 21.18l.04 1.23v1.36-1.48zM40.07 82s-.16.64-.32 1.3v-.19zm-.38-.23c.1-.39.2-.74.29-1.06-.09.29-.19.66-.29 1.04zm.3-3.64l.09-.26zm-.16-5.32l-.06.21v-.34a1.09 1.09 0 0 1 .05-.17zm-.45 1.6v-.44c0-.14.07-.24.11-.35V74zm.15 3.46v-.1c.07-.26.13-.48.19-.67-.04.14-.1.4-.19.75zm0 4.33zm0-2.89c.08-.25.16-.49.23-.73v.14c-.06.26-.14.57-.23.91zm0 4.26l.07-.25v.2l-.09.35zm0 1.67v-1.3l.1-.3c0 .33 0 .65.07.95s-.01.41-.06.63zm.16-.73v-1l.34-1.15V83c-.03.46-.12 1-.23 1.49zm.51-5l-.23.82zm-.19-8c0-.14.08-.28.13-.42v.23c0 .15-.09.3-.13.45a2.17 2.17 0 0 1 .11-.29zm.06 11.36v-.69l.29-1v.43c.01.39-.09.82-.18 1.23zm.35-1.46v-.44c.12-.38.24-.78.36-1.17v.2zm-.27-60.45s.06 4.36.12 6.53c0 0-.3-3.69-.46-5.54 0 0-.18-2.55-.39-5.45l.93-2.35c.1 4 .27 9.94.46 13.61V28c.1-.16-.31-4.76-.55-7.07zM41 79.68v-.22l.15-.49v.14zm.09 2.59v-.16l.24-.81c-.07.2-.16.54-.27.97zM42.1 65v.13a2.58 2.58 0 0 1-.08.26v-.13a2.58 2.58 0 0 1 .08-.26zm-.3 18.58v-.08zm.06 2.22v-.92c.15-.55.3-1.08.44-1.58 0 0 .23-.71.43-1.35v.12c-.22.93-.57 2.35-.87 3.76zm.91-3.9v-.1l.15-.47s-.06.25-.15.6zm.71.09l.2-.64v.55c0 .18-.15.55-.22.82zm.09 2.1v-.34l.27-.89v.17c-.09.36-.18.72-.27 1.09zm.77-2.94s-.18.64-.42 1.56v-.17c.15-.52.3-1 .42-1.4zm-.45.13v-.6c.14-.46.28-.94.44-1.45v.36zm.62-2.26v-.38c.21-.7.42-1.42.64-2.14v.19c-.21.77-.42 1.56-.64 2.36zm2.06-7.26v-.07c-.05.16-.3 1-.67 2.28v-.07c.26-.75.48-1.48.67-2.11zm-.08 11.94s-.36 1.45-.53 2.18c0 0 .85-2.77 1.27-4.17-.39 1.44-.91 3.24-1.34 5 0-.58 0-1.27-.08-2 .1-.35.2-.7.31-1 0 .18 0 .35.05.51v-.64c.48-1.65.9-3.18 1.16-4.06 0 0-1 4-1.39 6-.02-.12.37-1.25.55-1.82zM60.98 41.16z">
                        </path>
                    </svg>
                </svg> <!---->
            </g>
            <g transform="translate(37.30634415154334, 0)">
                <svg x="0" y="0" width="34.53191455227252" height="50">
                    <svg xmlns="http://www.w3.org/2000/svg" viewBox="0 0 56.19 81.32">
                        <path
                            d="M29.42 22.55c.21.3.61.76.61.76 2.31 2.34 5.79 3.9 8.66 5.09 5.09 2.16 8.92 4.53 12.27 9.47a19 19 0 0 1 2.75 7.06 20.94 20.94 0 0 1 0 7.28 28.33 28.33 0 0 1-5.49 12.05A40.77 40.77 0 0 1 41 71.55c-.71.56-1.42 1.09-2.16 1.61A48.66 48.66 0 0 1 25 79.87c-4.78 1.33-8.88 1.93-13.78 1a14.29 14.29 0 0 1-6.49-3.08 13.15 13.15 0 0 1-4.4-7.44 18.2 18.2 0 0 1 .16-7.6 18 18 0 0 0 0 7.55 12.79 12.79 0 0 0 4.36 7.24 14 14 0 0 0 6.39 2.88c.53.09 1 .17 1.59.22l-1.58-.25a13.9 13.9 0 0 1-6.33-3 12.67 12.67 0 0 1-4.23-7.14 18.33 18.33 0 0 1 .42-8.71A37.8 37.8 0 0 1 5 52.76a37.24 37.24 0 0 0-3.73 8.82 18.17 18.17 0 0 0-.36 8.61 12.45 12.45 0 0 0 4.18 7 13.67 13.67 0 0 0 6.23 2.85c4.77.8 8.78.15 13.41-1.19a49.21 49.21 0 0 0 8-3.25 50.19 50.19 0 0 0 5.66-3.4 43.85 43.85 0 0 0 4.08-3.2 42 42 0 0 1-4.15 3.19c-.73.49-1.46 1-2.22 1.41l2.17-1.5a43.74 43.74 0 0 0 4.46-3.72A43.41 43.41 0 0 1 38.22 72a47.16 47.16 0 0 1-13.6 6.51c-4.57 1.26-8.54 1.85-13.22 1a13.09 13.09 0 0 1-5.94-2.83 11.64 11.64 0 0 1-3.78-6.34 11.46 11.46 0 0 0 3.87 6.21 12.84 12.84 0 0 0 5.9 2.63c4.63.72 8.54 0 13-1.29h.05-.06c-4.47 1.24-8.37 1.84-13 1A12.56 12.56 0 0 1 5.8 76.1a10.93 10.93 0 0 1-3.63-6.26 15.47 15.47 0 0 1 .1-6.32 15.4 15.4 0 0 0 0 6.27 10.74 10.74 0 0 0 3.65 6 12.31 12.31 0 0 0 5.6 2.49c.55.09 1.08.16 1.63.21-.55-.06-1.08-.14-1.62-.25A12.17 12.17 0 0 1 6 75.73a10.5 10.5 0 0 1-3.52-6 16 16 0 0 1 .4-7.59 34.73 34.73 0 0 1 3.53-8 34.42 34.42 0 0 0-3.4 8.06 15.82 15.82 0 0 0-.33 7.49A10.28 10.28 0 0 0 6.2 75.5l.25.2a12 12 0 0 0 5.18 2.24c4.46.73 8.27.07 12.59-1.18a47.66 47.66 0 0 0 13.1-6.44 41.35 41.35 0 0 0 5.08-4.22 36.48 36.48 0 0 0 3.52-4 31 31 0 0 0 2.82-4.5 23.38 23.38 0 0 0 1.82-5.28 25.29 25.29 0 0 1-4.67 9.75 37.74 37.74 0 0 1-5.17 5.53 41.52 41.52 0 0 1-3.42 2.68 46.1 46.1 0 0 1-13.12 6.34c-4.29 1.21-8.09 1.82-12.5 1a11.53 11.53 0 0 1-5.28-2.43 9.85 9.85 0 0 1-3.29-5.62A12.87 12.87 0 0 1 2.88 66a13.18 13.18 0 0 0 .28 3.6 9.69 9.69 0 0 0 3.31 5.52 11.36 11.36 0 0 0 5.24 2.35 19.24 19.24 0 0 0 3.93.31 19.8 19.8 0 0 1-3.91-.4 11.37 11.37 0 0 1-5.14-2.43 9.47 9.47 0 0 1-3-4.9 9.24 9.24 0 0 0 3.09 4.77 11.22 11.22 0 0 0 5.1 2.18c4.31.66 8 0 12.2-1.26l.8-.26-.8.25c-4.17 1.17-7.88 1.77-12.16 1a10.75 10.75 0 0 1-4.92-2.29 8.94 8.94 0 0 1-3-5.09 14.28 14.28 0 0 1 .41-6.72 31.62 31.62 0 0 1 2.85-6.58 30.71 30.71 0 0 0-2.6 6.65 14 14 0 0 0-.28 6.55A8.41 8.41 0 0 0 7.17 74a10.42 10.42 0 0 0 4.75 2.1 19.43 19.43 0 0 0 5.22.18 19 19 0 0 1-5.21-.28 10.25 10.25 0 0 1-4.66-2.15 8.24 8.24 0 0 1-2.74-4.69l-.06-.36.07.36a8.16 8.16 0 0 0 2.78 4.61A10.17 10.17 0 0 0 12 75.85c4.14.67 7.76 0 11.77-1.15a45.31 45.31 0 0 0 8.21-3.47C30.66 71.89 28 73 28 73a43.23 43.23 0 0 1-4.34 1.56c-4 1.12-7.6 1.72-11.69 1a9.92 9.92 0 0 1-4.49-2.07 7.74 7.74 0 0 1-2.58-4.41 11 11 0 0 1-.19-2.75A10.4 10.4 0 0 0 5 69.05a7.61 7.61 0 0 0 2.6 4.33 9.73 9.73 0 0 0 4.45 2c4.06.66 7.64 0 11.58-1.13 1.2-.37 2.36-.78 3.54-1.25-1.19.46-2.34.86-3.55 1.22-3.93 1.11-7.51 1.71-11.54 1a9.44 9.44 0 0 1-4.33-2A7.35 7.35 0 0 1 5.28 69a10.81 10.81 0 0 1-.17-2.84A10.72 10.72 0 0 0 5.33 69a7.25 7.25 0 0 0 2.48 4.1A9.51 9.51 0 0 0 12.1 75a24.93 24.93 0 0 0 11.42-1.12c1.19-.37 2.33-.78 3.49-1.24-.85.32-2.57.88-2.57.88l-.93.29c-3.87 1.09-7.4 1.7-11.37 1A9.23 9.23 0 0 1 8 72.82a6.83 6.83 0 0 1-2.31-3.95A12 12 0 0 1 6 63.2v-.11.11a12 12 0 0 0-.28 5.64 8.11 8.11 0 0 0 .38 1.21 8.42 8.42 0 0 1-.36-1.21 12.06 12.06 0 0 1 .39-5.6 29 29 0 0 1 2.55-5.9 28.82 28.82 0 0 0-2.34 6 11.6 11.6 0 0 0-.25 5.43 6.36 6.36 0 0 0 2.1 3.51 6.26 6.26 0 0 1-2-3.54 11.41 11.41 0 0 1 .38-5.32 29.11 29.11 0 0 1 2.48-5.72 27.93 27.93 0 0 0-2.23 5.77 10.91 10.91 0 0 0-.24 5.14 5.79 5.79 0 0 0 2 3.27 8.27 8.27 0 0 0 3.75 1.6 24 24 0 0 0 10.85-1.11 44.14 44.14 0 0 0 8.18-3.49 43.94 43.94 0 0 0 3.85-2.39 34.4 34.4 0 0 0 7.7-7.27A20.66 20.66 0 0 0 47 50.7c0-.22.08-.44.11-.67a11.88 11.88 0 0 0-.11-3.62 11.09 11.09 0 0 0-1.62-4l-.05-.07v.08a10 10 0 0 1 .55 1 10.69 10.69 0 0 1 1 3.06 12.14 12.14 0 0 1-.06 4.25A17.07 17.07 0 0 1 45.41 55a24.43 24.43 0 0 1-2.54 4.17c-.67.88-1.33 1.67-2.07 2.47a36 36 0 0 1-5.6 4.82 41.74 41.74 0 0 1-12.05 5.76c-3.63 1-7 1.57-10.75.84L12 73a7.6 7.6 0 0 1-3.16-1.52 5.22 5.22 0 0 1-1.74-3 7.54 7.54 0 0 1-.13-2 7.88 7.88 0 0 0 .17 2 5.92 5.92 0 0 0 .34 1v-.11A5 5 0 0 0 9 71.32a7.81 7.81 0 0 0 3.5 1.45 17.37 17.37 0 0 0 4.5.1 16.49 16.49 0 0 1-4.49-.23 7.45 7.45 0 0 1-3.38-1.52 4.78 4.78 0 0 1-1.6-2.76 9.87 9.87 0 0 1 .34-4.55v-.08.08a9.74 9.74 0 0 0-.25 4.52A4.55 4.55 0 0 0 9.18 71a7.45 7.45 0 0 0 3.32 1.4c.34.06.67.1 1 .14l-1-.16a7.34 7.34 0 0 1-3.27-1.48 4.5 4.5 0 0 1-1.52-2.61 9.18 9.18 0 0 1 .21-3.9 8.92 8.92 0 0 0-.12 3.88 4.3 4.3 0 0 0 1.52 2.49 7.07 7.07 0 0 0 3.23 1.37 16.77 16.77 0 0 0 4.42.15 15.92 15.92 0 0 1-4.41-.28 6.91 6.91 0 0 1-3.14-1.43A4.05 4.05 0 0 1 8 68.2a9.29 9.29 0 0 1 .4-4.2 26.37 26.37 0 0 1 2.18-5 25.31 25.31 0 0 0-2 5.12 8.68 8.68 0 0 0-.21 4 3.58 3.58 0 0 0 1.3 2.07 6.71 6.71 0 0 0 2.95 1.22 22.74 22.74 0 0 0 10-1.07 42.68 42.68 0 0 0 8-3.43 41.05 41.05 0 0 0 3.55-2.21 33 33 0 0 0 6.9-6.38l.35-.45c.37-.5.72-1 1.06-1.52a17.19 17.19 0 0 0 2.52-6.1 10 10 0 0 0 0-3.41A8.56 8.56 0 0 0 44 44l-.22-.35c-2.12-3-5-4.52-8.12-5.82a42.53 42.53 0 0 1-8.53-4.46c.47.33 1.24.86 1.25.84a48 48 0 0 0 7.27 3.66 19.08 19.08 0 0 1 6.77 4.32 10.47 10.47 0 0 1 1.25 1.55 8.38 8.38 0 0 1 1.26 3.1 9.72 9.72 0 0 1 0 3.36 18 18 0 0 1-3.54 7.54 27.19 27.19 0 0 1-1.75 2.11 33.11 33.11 0 0 1-5.46 4.74 39.81 39.81 0 0 1-11.53 5.5 21.13 21.13 0 0 1-9.91.79A5.85 5.85 0 0 1 10 69.67a2.83 2.83 0 0 1-.76-1.07 2.89 2.89 0 0 0 .82 1 5.29 5.29 0 0 0 .5.32 5.34 5.34 0 0 1-.48-.35 2.78 2.78 0 0 1-.94-1.66 8 8 0 0 1 .35-3.5 27.79 27.79 0 0 1 2.78-6 26.22 26.22 0 0 0-2.52 6.11 9.1 9.1 0 0 0-.32 2.38 9.44 9.44 0 0 1 .24-1.76 6.5 6.5 0 0 0-.08 2.67 2.24 2.24 0 0 0 .81 1.3 5.7 5.7 0 0 0 2.43 1 13.12 13.12 0 0 0 1.77.19 25.05 25.05 0 0 0 7.79-1.3c.46-.14.91-.29 1.37-.45a42.05 42.05 0 0 0 9.79-5.09c.87-.61 1.68-1.24 2.5-1.94-.83.68-1.65 1.29-2.53 1.89A40.65 40.65 0 0 1 26.87 67a40.22 40.22 0 0 1-4.56 1.67 20.43 20.43 0 0 1-9.36.87 6 6 0 0 1-1.81-.67 3.48 3.48 0 0 1-.39-.28 1.57 1.57 0 0 1-.56-1 7 7 0 0 1 .29-2.9 26.26 26.26 0 0 1 2.62-5.78 25.28 25.28 0 0 0-2.49 5.82 6.49 6.49 0 0 0-.22 2.8 1.3 1.3 0 0 0 .52.8 5 5 0 0 0 2.1.84c.31.06.61.1.93.13l-.94-.14a4.61 4.61 0 0 1-2-.91 1.2 1.2 0 0 1-.39-.76 5.72 5.72 0 0 1 .16-1.89 4.61 4.61 0 0 0 0 1.85.92.92 0 0 0 .41.53 4.9 4.9 0 0 0 1.94.71 11.58 11.58 0 0 0 1.32.14 11.48 11.48 0 0 1-1.31-.19 4.25 4.25 0 0 1-1.85-.8.61.61 0 0 1-.23-.46 6.38 6.38 0 0 1 .29-2.38 25.5 25.5 0 0 1 2.46-5.32 23.67 23.67 0 0 0-2.21 5.4 5.2 5.2 0 0 0-.17 2.18c0 .07.05 0 .13.11a4.54 4.54 0 0 0 1.65.63 12.25 12.25 0 0 0 2.49.14 10.89 10.89 0 0 1-2.48-.21 3.86 3.86 0 0 1-1.57-.65 6.41 6.41 0 0 1 .28-2 5.27 5.27 0 0 0-.18 2v-.08a4.26 4.26 0 0 0 1.52.54 20 20 0 0 0 8.59-1 39.05 39.05 0 0 0 10.61-5.21s1.08-.74 1.06-.77a32.6 32.6 0 0 0 3.62-3.25 26 26 0 0 0 1.73-2.16s.28-.41.44-.64l-.45.63a28.43 28.43 0 0 1-6.39 6.11 38.86 38.86 0 0 1-4.13 2.51 37.07 37.07 0 0 1-6.48 2.65 18.91 18.91 0 0 1-8.53.86A4.36 4.36 0 0 1 12 67v-.32a5.33 5.33 0 0 1 .24-1.35 23.54 23.54 0 0 1 2.3-5.08 22.89 22.89 0 0 0-2.18 5.13l-.1.92.23.06v-.2.22c.31.09.77.22.85.23a19.62 19.62 0 0 0 8.16-1 38.22 38.22 0 0 0 10.4-5.15s1.75-1.24 1.72-1.29c.81-.67 1.56-1.34 2.32-2.1a28.42 28.42 0 0 0 2.11-2.5 13.53 13.53 0 0 0 2.54-5.32 4.23 4.23 0 0 0 0-1.42 3.22 3.22 0 0 0-.5-1.17c-1.4-2-3.88-3.19-5.94-4.06a52 52 0 0 1-7.52-3.72 28 28 0 0 1-5.78-4.62 18.13 18.13 0 0 1-3.79-5.93 15.73 15.73 0 0 1-1-7.17A17 17 0 0 1 18 14.88a21.34 21.34 0 0 1 3.34-4.64A32.35 32.35 0 0 1 29.79 4 39.3 39.3 0 0 1 39.22.46c.83-.19 1.63-.34 2.46-.46-.83.14-1.63.3-2.45.5a40 40 0 0 0-9.36 3.66 32.61 32.61 0 0 0-8.37 6.32 21.89 21.89 0 0 0-3.26 4.59 16.56 16.56 0 0 0-1.81 6.13 15.23 15.23 0 0 0 1 7 17.7 17.7 0 0 0 3.71 5.78 28.36 28.36 0 0 0 5.71 4.54 51.75 51.75 0 0 0 7.46 3.7c2.11.9 4.52 2.07 6 4.11-1.33-2-3.53-3.15-5.51-4.08l-.46-.25c-4.94-2.07-9.17-4.2-13.1-8.24a17.43 17.43 0 0 1-3.65-5.73 15 15 0 0 1-.94-6.84 16 16 0 0 1 1.81-6 20.88 20.88 0 0 1 3.25-4.48 31.48 31.48 0 0 1 8.34-6.14c.47-.25.94-.48 1.42-.71l-1.41.74a32.07 32.07 0 0 0-8.23 6.25 20.81 20.81 0 0 0-3.17 4.48 15.89 15.89 0 0 0-1.75 5.91 15.51 15.51 0 0 0 0 2.55 15.27 15.27 0 0 1 1.8-8.43 20.55 20.55 0 0 1 3.2-4.36 31.3 31.3 0 0 1 8.28-6.05 37.89 37.89 0 0 1 9.24-3.34A27.53 27.53 0 0 1 42.92 1l-.92.15a18.43 18.43 0 0 1 6.33.12 10.07 10.07 0 0 1 4.49 2.12 9 9 0 0 1 2 2.4A9.43 9.43 0 0 1 56 9a11.21 11.21 0 0 1 .11 3.06A11.55 11.55 0 0 0 56 9a9.57 9.57 0 0 0-1.18-3.19 8.85 8.85 0 0 0-2-2.37 10 10 0 0 0-4.47-2.06 21.05 21.05 0 0 0-8.86.49 39.13 39.13 0 0 0-9.1 3.52 33.49 33.49 0 0 0-6.65 4.66 32.89 32.89 0 0 1 6.69-4.57c1.18-.62 2.33-1.14 3.56-1.64-1.22.52-2.36 1.07-3.53 1.71-.77.45-1.46.86-2.26 1.34l2.28-1.27c.77-.39 1.52-.74 2.3-1.08l-2.26 1.17a31.18 31.18 0 0 0-7.9 6.09 21.25 21.25 0 0 0-2.34 3.11 20.55 20.55 0 0 1 2.37-3.07 30.44 30.44 0 0 1 8-5.88 37.53 37.53 0 0 1 9-3.32 20.15 20.15 0 0 1 8.57-.3 9.27 9.27 0 0 1 4.07 2A7.9 7.9 0 0 1 54 6.41a8.55 8.55 0 0 1 1 2.82 10.59 10.59 0 0 1-.23 4.45A10.84 10.84 0 0 0 55 9.25a8.28 8.28 0 0 0-1-2.76 7.69 7.69 0 0 0-1.75-2 9 9 0 0 0-4-1.82 20.3 20.3 0 0 0-8.42.53 37.33 37.33 0 0 0-4.49 1.46l-.37.14a36.9 36.9 0 0 1 4.87-1.49 21.71 21.71 0 0 1 7-.55 21.83 21.83 0 0 0-7 .68 37.77 37.77 0 0 0-8.11 3.07 38 38 0 0 1 5.77-2.29 39.72 39.72 0 0 0-6.41 2.84 31.38 31.38 0 0 0-6.4 4.61 31 31 0 0 1 6.46-4.47A36.12 36.12 0 0 1 39.87 4 19 19 0 0 1 48 3.65a8 8 0 0 1 3.59 1.7 6.57 6.57 0 0 1 1.48 1.78 7.16 7.16 0 0 1 .84 2.36 9.83 9.83 0 0 1-.53 4.9 20.16 20.16 0 0 1-2 4 19.39 19.39 0 0 0 1.9-4.07 9.58 9.58 0 0 0 .43-4.78 6.77 6.77 0 0 0-.83-2.25 6.57 6.57 0 0 0-1.43-1.66 7.82 7.82 0 0 0-3.48-1.56 19.27 19.27 0 0 0-7.97.52 37.26 37.26 0 0 0-8.53 3.35 31.85 31.85 0 0 0-5.69 3.89A31 31 0 0 1 31.49 8a36.88 36.88 0 0 1 5.71-2.37c-.93.37-2.74 1.07-2.74 1.07a35.65 35.65 0 0 1 5.59-1.79 26.7 26.7 0 0 1 2.65-.46c-.9.13-1.75.3-2.64.51a36.82 36.82 0 0 0-8.46 3.32 28.46 28.46 0 0 0-7.31 5.51 16.57 16.57 0 0 0-2.56 3.59 11.43 11.43 0 0 0-1.28 4.29 10.15 10.15 0 0 0 .67 4.67 13.12 13.12 0 0 0 2.78 4.29l.5.51-.5-.51a13.31 13.31 0 0 1-2.77-4.29 10.29 10.29 0 0 1-.65-4.67 11.38 11.38 0 0 1 1.31-4.26 16.29 16.29 0 0 1 2.57-3.54 27.53 27.53 0 0 1 7.34-5.35l1-.49a34.8 34.8 0 0 1 7.46-2.67 18 18 0 0 1 7.6-.36 7.1 7.1 0 0 1 3.1 1.44 5.34 5.34 0 0 1 1.19 1.43 5.85 5.85 0 0 1 .68 1.89 8.33 8.33 0 0 1-.46 4.17A17.08 17.08 0 0 1 50.8 17a17.54 17.54 0 0 0 1.42-3.11 8.34 8.34 0 0 0 .4-4.12A5.53 5.53 0 0 0 51.94 8a5.18 5.18 0 0 0-1.17-1.37 6.85 6.85 0 0 0-3.05-1.37h-.29a18.82 18.82 0 0 0-7.23.6 36.91 36.91 0 0 0-8.27 3.3 32.05 32.05 0 0 0-4.55 3 30.57 30.57 0 0 1 4.24-2.69l.36-.2a34.62 34.62 0 0 1 8.29-3.1 17.64 17.64 0 0 1 7.37-.35 6.57 6.57 0 0 1 2.82 1.31 4.61 4.61 0 0 1 1 1.24 5 5 0 0 1 .58 1.62 6.6 6.6 0 0 1 0 2.26 6.54 6.54 0 0 0 0-2.25 4.67 4.67 0 0 0-.59-1.6 4.43 4.43 0 0 0-1-1.2 6.2 6.2 0 0 0-2.8-1.24 17.84 17.84 0 0 0-7.3.46 35.3 35.3 0 0 0-7.88 3 38.36 38.36 0 0 1 4-1.68l-.61.25a33.39 33.39 0 0 1 4.54-1.38 16.84 16.84 0 0 1 7.2-.3 5.82 5.82 0 0 1 2.63 1.22 4.46 4.46 0 0 1 .91 1.11 4 4 0 0 1 .5 1.44 6.91 6.91 0 0 1-.42 3.43 18.68 18.68 0 0 1-2.26 4.18 18.22 18.22 0 0 0 2.04-4.3 6.69 6.69 0 0 0 .32-3.32A3.83 3.83 0 0 0 50 7.78a5.56 5.56 0 0 0-2.5-1.07 17.32 17.32 0 0 0-7 .49c-.95.24-1.85.51-2.78.83.94-.3 1.84-.55 2.79-.77C41 7.14 41.58 7 42.14 7c-.15 0-1.65.35-1.65.35a34.67 34.67 0 0 0-8 3.14A31 31 0 0 0 28.57 13a31.42 31.42 0 0 1 4-2.45 33 33 0 0 1 8-2.91 16.28 16.28 0 0 1 6.77-.26 17.19 17.19 0 0 0-6.72.56 34.73 34.73 0 0 0-7.84 3.14 26 26 0 0 0-6.57 5 13.91 13.91 0 0 0-2.1 2.92v.05V19a13.28 13.28 0 0 1 2.11-2.88 25.57 25.57 0 0 1 6.63-4.82c1.1-.56 2.16-1 3.3-1.49a33.81 33.81 0 0 0-3.27 1.57c-.62.34-1.22.69-1.82 1.07l1.83-1a32.94 32.94 0 0 1 7.81-3.02 16.09 16.09 0 0 1 6.55-.33 4.5 4.5 0 0 1 1.94.9 2.14 2.14 0 0 1 .52.63 2.28 2.28 0 0 1 .27.77 3.76 3.76 0 0 1 0 .67 2.89 2.89 0 0 0 0-.66 2.48 2.48 0 0 0-.28-.76 2.31 2.31 0 0 0-.55-.65 4.54 4.54 0 0 0-1.92-.82 16.32 16.32 0 0 0-6.48.46 33.84 33.84 0 0 0-7.72 3A26.09 26.09 0 0 0 27 16c.48-.47 1.44-1.27 1.44-1.27a28.56 28.56 0 0 1 4.59-3 32.63 32.63 0 0 1 7.72-2.9 15.54 15.54 0 0 1 6.4-.33 4.13 4.13 0 0 1 1.79.8 2 2 0 0 1 .43.52 1.68 1.68 0 0 1 .21.63 4.62 4.62 0 0 1-.31 2.18 6.44 6.44 0 0 1-.24.61l.22-.61a4.46 4.46 0 0 0 .26-2.17 1.46 1.46 0 0 0-.22-.58 1.94 1.94 0 0 0-.42-.48 4.14 4.14 0 0 0-1.75-.73 12.83 12.83 0 0 0-4 0c-.8.12-1.56.28-2.36.48a33.6 33.6 0 0 0-7.58 3.05A24.85 24.85 0 0 0 27 17a14.51 14.51 0 0 0-1.15 1.44A13.23 13.23 0 0 1 27 17a24.35 24.35 0 0 1 6.35-4.53c1-.51 2-1 3.09-1.36a33 33 0 0 0-3 1.5 24.48 24.48 0 0 0-6.14 4.7 12.24 12.24 0 0 0-1.67 2.32 12.06 12.06 0 0 1 1.71-2.27 23.55 23.55 0 0 1 6.2-4.51A31.13 31.13 0 0 1 41 10.1a14.41 14.41 0 0 1 6-.28 3 3 0 0 1 1.29.58.65.65 0 0 1 .15.18.76.76 0 0 1 0 .16 3.86 3.86 0 0 1-.28 1.42s-.16.39-.17.43l.14-.44a3.13 3.13 0 0 0 .19-1.39l-.05-.07-.12-.11a3.27 3.27 0 0 0-1.23-.45 14.55 14.55 0 0 0-5.45.41 15.07 15.07 0 0 1 4.87-.34 16.6 16.6 0 0 0-5.2.54 32.6 32.6 0 0 0-6 2.19l-1.3.68a23.15 23.15 0 0 0-5.93 4.46 10.89 10.89 0 0 0-1.64 2.3 5.08 5.08 0 0 0-.59 1.9A3.8 3.8 0 0 0 26 24a7.65 7.65 0 0 0 1.57 2.33c2.83 2.84 6.43 4.5 9.93 6l.62.26a30.57 30.57 0 0 1 3.19 1.59c-.94-.56-2.89-1.5-2.89-1.5l-.9-.39s-1.66-.69-1.66-.7a26 26 0 0 1-8.23-5.29 7.17 7.17 0 0 1-1.53-2.31 3.51 3.51 0 0 1-.23-1.64 5 5 0 0 1 .59-1.82 10.77 10.77 0 0 1 1.65-2.22A22.55 22.55 0 0 1 34 14a32.31 32.31 0 0 1 4.72-2c-.66.23-1.94.76-2 .79a29.46 29.46 0 0 1 4.53-1.45 18.7 18.7 0 0 1 3.33-.48.88.88 0 0 0 0 .23 19.73 19.73 0 0 0-3.27.53 31 31 0 0 0-6 2.18 29.43 29.43 0 0 1 6-2c.66-.14 1.3-.25 2-.33.43 0 .85-.09 1.28-.11a1.42 1.42 0 0 0 0 .26 19.18 19.18 0 0 0-3.21.52A28.37 28.37 0 0 0 38 13.19a32.43 32.43 0 0 0-3.58 1.69 25.21 25.21 0 0 0-4.26 2.93A24.61 24.61 0 0 1 34.44 15a30.1 30.1 0 0 1 5.08-2 31.7 31.7 0 0 0-5 2.25 23.42 23.42 0 0 0-4.74 3.43l.26-.24a23.9 23.9 0 0 1 4.54-3.05 28.72 28.72 0 0 1 6.92-2.56 18.37 18.37 0 0 1 3.3-.43l.13.31.07-.13-.08-.18h.18c.14-.28.28-.57.4-.87h-.85v-.25h1c0-.07 0-.15.07-.23a9.55 9.55 0 0 0-1.07 0v-.24a9.79 9.79 0 0 1 2.16.16l.23.06a.35.35 0 0 0-.07.15c0 .08-.05.19-.09.31l.28.1.08.12v-.08.08l.08.09h-.1c0 .14-.18.43-.16.38l.14-.38a2.38 2.38 0 0 0-.38-.11 7.29 7.29 0 0 1-.32.67c.09-.22.18-.44.26-.67h-.06l-.61-.08q0-.11-.06-.24c.23 0 .47.06.7.11h.09c0-.14 0-.23.07-.3h-.11c-.28 0-.55-.07-.83-.09 0-.05 0 0-.07 0h-.18v.5h-.16c-.13.26-.32.58-.48.87a6.18 6.18 0 0 1 1.07.09l.09.13v-.1.11a3.25 3.25 0 0 0 .26.27c.18.15-.13.09-.15.08h-.28l-.11.19.1-.19a7.17 7.17 0 0 0-.93 0l-.11-.4-.07.12a2.12 2.12 0 0 0 .11.21h-.24a18.47 18.47 0 0 0-3.19.52 30.52 30.52 0 0 0-6.73 2.66 21.34 21.34 0 0 0-5.29 3.93l-.29.32c-.15.18-.42.54-.44.57a8.82 8.82 0 0 1 .76-.86A20.53 20.53 0 0 1 35 16.39c.53-.26 1-.51 1.59-.73-.14.06-1.55.81-1.55.81-.67.38-1.29.77-1.93 1.21.65-.41 1.29-.78 2-1.14a28.24 28.24 0 0 1 6.67-2.47 14 14 0 0 1 3.81-.4 14.85 14.85 0 0 0-3.8.5A29.92 29.92 0 0 0 38 15.45a27.2 27.2 0 0 1 3.8-1.15 13 13 0 0 1 4.04-.3c.44.35.37.33.34.33a13.29 13.29 0 0 0-4.34.48 29.08 29.08 0 0 0-6.45 2.58 20.08 20.08 0 0 0-5 3.69 7.11 7.11 0 0 0-1 1.39v.07zm-25 46.27zM6 63.09v-.17.18zm1.79.64zM12 67l-.11-.08c0 .06.08.17.1.19V67zm-.11-.08zm.38-.58v.43h.08c.05.07.08.15.1.17v-.13h.1v-.08h-.08v-.13a2.69 2.69 0 0 0-.19-.32zm0 .35l.07.12h.13v-.07l-.21-.1zm.31.21a4.34 4.34 0 0 0 .77.21 8.43 8.43 0 0 0 .86.11l-.86-.15a7.11 7.11 0 0 1-.77-.24v.07zM48 12.59zm-3.42-1.74v-.31a.75.75 0 0 0 0 .32zm2.44.21zm0 0a.66.66 0 0 0 .06.2l.2.07v.22c0-.08 0-.17.06-.24l.24.09s-.08-.11-.11-.17v-.07h-.07v-.09a.27.27 0 0 1 0-.12v.19a2.11 2.11 0 0 0-.3-.1zm.41.14a.55.55 0 0 1 .17.1l-.06-.08a1.19 1.19 0 0 1-.11-.26.65.65 0 0 0 0 .13.36.36 0 0 0 0 .11zm.17.1zm-.33.29v.08l.15.05a.37.37 0 0 1-.12-.13zm0 .07v-.18a1.5 1.5 0 0 1-.11-.22h-.14a1.7 1.7 0 0 0 .14.35v.06h.1zm-1.3-.59h-.07a.13.13 0 0 0 0 .08l-.06.18h.24v-.06a.68.68 0 0 0-.06-.22zm-1.3 0a2 2 0 0 0 0 .25h.06v-.25zm1.86 1.3l-.1.19h.13c.38.15.28.08.26.07a2 2 0 0 1-.29-.29zm-.43.81c0 .1-.08.14 0 .1v-.1zm.32-.62l.1-.21a1.77 1.77 0 0 1-.16-.22 3.76 3.76 0 0 1-.25-.54h-.26a3 3 0 0 0 .28.73l.15.23h.14zm-1.69-1h-.08a4 4 0 0 0 .22.83h.12a4 4 0 0 1-.26-.85zM44.8 13c0 .05 0 .07 0 0zm.41 0h-.14v.06a3.46 3.46 0 0 0 .45.64h.23a3.42 3.42 0 0 1-.57-.72zm.57.72zm0 0h-.23a2.46 2.46 0 0 0 .28.28l.4.08-.23-.22a1.54 1.54 0 0 1-.19-.17zm.45.36s.06 0 0 0z"
                            fill="#0272bb"></path>
                    </svg>
                </svg>
            </g>
            <g transform="translate(77.83825870381585, 0)">
                <svg x="0" y="0" width="37.02461910572845" height="50">
                    <svg xmlns="http://www.w3.org/2000/svg" viewBox="0 0 64.06 86.5">
                        <path
                            d="M64.06 4.75A238.48 238.48 0 0 1 45.8 45.18c-2.58 4.43-5.22 8.61-8.12 12.83 0 0 1.38-2.12 2-3.19.92-1.38 1.82-2.76 2.7-4.16A203.61 203.61 0 0 0 60.6 12.9c-2.39 6.15-4.92 12-7.77 17.94A225.06 225.06 0 0 0 63 4.4c-3 8.39-6.23 16.21-10 24.28 2.25-5.05 4.23-10 6.1-15.21-2 4.86-4 9.56-6.29 14.3A237.54 237.54 0 0 0 62 3.83a265.96 265.96 0 0 1-7.45 19.07c-2.92 6.53-6 12.62-9.47 18.87 0 0-3.7 6.06-5.67 9 2.61-4.12 4.94-8.18 7.2-12.5 0 0 3.32-6.5 4.84-9.81A214.38 214.38 0 0 0 58 12.7l-1 2.58s2.8-7.82 4-11.79a277.63 277.63 0 0 1-7.53 18.83s1-2.55 1.52-3.83A225.69 225.69 0 0 1 36.29 53c-3.25 4.8-6.53 9.26-10.17 13.77-2 2.29-4 4.46-6.08 6.63l-.69.69a113.05 113.05 0 0 0 8-9.17c2.38-2.92 4.53-5.77 6.65-8.81 0 0 .75-1.06 1.12-1.6 2.39-3.43 4.57-6.83 6.7-10.43A200.29 200.29 0 0 0 59.14 4.6a263.6 263.6 0 0 1-10.92 25.61c2.91-6.14 5.4-12.12 7.76-18.49-1.93 4.91-3.95 9.64-6.17 14.42 2.26-5 4.26-10 6.16-15.2-2.54 6.52-5.21 12.66-8.27 18.94 1.92-4.16 3.66-8.27 5.31-12.55l-.06.14s1-2.47 1.44-3.71c0 0-2.89 7-4.46 10.39a220.78 220.78 0 0 1-15.4 27.37s-3.19 4.62-3.5 5c0 0-3.38 4.45-5.16 6.61l-.53.63s2.19-2.82 3.24-4.27A146.13 146.13 0 0 0 40 42.82 197.55 197.55 0 0 0 57.11 3.68c-2 5.44-4.08 10.68-6.4 16C52.91 14.26 54.83 9 56.62 3.4c0 0-3.34 8.9-5.2 13.28 0 0 1.73-4.46 2.55-6.71a235.06 235.06 0 0 1-11.55 25.34s-.88 1.56-1.33 2.34A206.28 206.28 0 0 0 52.4 12.77a230.06 230.06 0 0 1-11.68 24.7A207.53 207.53 0 0 0 51.94 12.8 225.16 225.16 0 0 1 40 38s-1.31 2.21-2 3.3a199.12 199.12 0 0 0 12.63-26.5c-1.93 4.62-3.93 9.06-6.14 13.55a217.23 217.23 0 0 0 10.1-25.87 242.18 242.18 0 0 1-14 31.67 198 198 0 0 0 8.55-19.25s-3.41 7.65-5.27 11.4c2.22-4.8 4.2-9.53 6.08-14.48A211.58 211.58 0 0 1 32.2 46.59c.13.08-6 8.72-6.62 9.56 0-.06 1.22-1.73 1.8-2.58 1.34-1.86 2.63-3.73 3.9-5.64a183.53 183.53 0 0 0 15.5-29.55c2.41-5.81 4.5-11.5 6.45-17.48-2.76 7.9-5.69 15.24-9.23 22.84 2-4.61 3.83-9.15 5.53-13.88A243.54 243.54 0 0 1 38.91 32.6a196 196 0 0 0 8.25-18.71A219.92 219.92 0 0 1 30 46.19s2.07-3.43 3-5.17c0 0-2 3.13-3.1 4.67 1.59-2.44 3.09-4.88 4.55-7.4A203.18 203.18 0 0 0 51.2 0c-2.73 7.84-5.64 15.11-9.11 22.65 2-4.57 3.78-9.07 5.46-13.77a223.8 223.8 0 0 1-17.61 34.69 160.87 160.87 0 0 1-11.69 16.12c.88-7.49 1.51-14.94 1.87-22.61a120.24 120.24 0 0 0-1.46-26.19c.43 4.12.63 8.1.72 12.24 0 0-.3-4.73-.57-7.09.27 3.82.38 7.52.39 11.34 0-.06-.1-2.11-.17-3.15 0 0-.1 5.46-.22 8.18v-.76a103.54 103.54 0 0 0-2-23.1A148.55 148.55 0 0 1 17.9 30v.3c0-.17-.19-5.87-.44-8.73 0 0 0 5.37-.08 8.06 0 0-.11-4.58-.26-6.86a96.69 96.69 0 0 0-1.56-13.63c.48 3.18.78 6.24 1 9.44 0 0 .12 4.09.12 6.13a102.31 102.31 0 0 0-1.42-14.3 122.64 122.64 0 0 1 1 13.13l-.09-1.57a247.52 247.52 0 0 1-1 26l-.12 1.41s-.14 1.06-.2 1.6c.06-.58.11-1.17.16-1.75a193.72 193.72 0 0 0 .73-24.57s-.31-5.67-.64-8.49c0 0 .17 2.44.23 3.66a90.84 90.84 0 0 0-1.26-9.14 158.88 158.88 0 0 1 .74 22.67s-.08-6.63-.31-9.94c0 0-.07 6.05-.2 9.06a127.05 127.05 0 0 0-.65-13.79c-.24-2.67-.56-5.21-1-7.84a134.65 134.65 0 0 1 1 18.5v1.39a115.31 115.31 0 0 0-1.23-18.28 134.73 134.73 0 0 1 .81 14.62c0-.08-.09-2.48-.15-3.69 0 0 0 6.79-.12 10.18a118.13 118.13 0 0 0-1-17.64c.24 4.28.29 8.45.23 12.74 0 0-.18-6.23-.45-9.33 0 0 .08 1.89.11 2.83a79.6 79.6 0 0 0-1.76-12.88 126.27 126.27 0 0 1 1.06 14v-.41 2.66a100.41 100.41 0 0 0-1.26-13.18A127.1 127.1 0 0 1 10.72 26s0 2-.06 3a105.92 105.92 0 0 0-.93-12.71s-.53-4-.94-6a116.09 116.09 0 0 1 1.15 14.9c0 5.12-.19 10.14-.48 15.25A150.94 150.94 0 0 0 9.25 19s.14 3.25.16 4.88l-.09-1.73s.06 5 0 7.57a90.4 90.4 0 0 0-1.9-19.55 143.61 143.61 0 0 1 1 20s-.19-5.54-.42-8.29v3.53s-.29-5.6-.62-8.39c0 0 .26 4.25.31 6.38v-.21a83.17 83.17 0 0 0-1.32-10.56 163.72 163.72 0 0 1 .54 20.18s-.09-5.55-.29-8.32v2.72s-.08-2.3-.15-3.45v6.3a106 106 0 0 0-1.24-16.79s.41 4.11.53 6.17v-.41c.17 5.75 0 11.33-.23 17.07 0 0 .1-7.36-.07-11 0 7.83-.44 15.35-1.13 23.15 0 0-.54 4.17-.83 6.25.41-3.5.76-7 1-10.5a153.32 153.32 0 0 0 .06-24.34A207.59 207.59 0 0 1 4 43.93c.2 0-2 20.12-2.26 22.24l-.27 1.74L0 79.33a14.37 14.37 0 0 0 .69-2.2 16.66 16.66 0 0 0-.31 2.66c.39-.35 1.59-7.58 1.71-8.32.05 0 1.05-7.15 1.13-7.75 0 0-.15 1.5-.22 2.25 0 .06-.27 1.75-.4 2.61L1 79.61a26.26 26.26 0 0 0 .71-2.91s-.56 3.23-.26 3.3.83-2.41.89-2.7a19.57 19.57 0 0 0-.17 2.46 14.37 14.37 0 0 0 .69-2.2 16.66 16.66 0 0 0-.31 2.66 7.58 7.58 0 0 0 .45-1.6s.39-1.85.75-3.61l.43-.26c0 .28-.11.66-.17 1.08-.15.17-.23.3-.2.35s.07 0 .14 0c-.07.45-.14.89-.19 1.23 0 0-.28 1.73-.33 2.58 0 0 0-.16.07-.23s0 .61.1.64.57-1.39.63-1.58v.63c.25-.72.47-1.52.68-2.34.22-.11.47-.28.59-.35v.34a4.87 4.87 0 0 0-.61.56 2.25 2.25 0 0 0 .57-.27L5 80.71a6.07 6.07 0 0 0 .73-2.07h.11c-.09.66-.19 1.39-.22 1.88 0 0 .32-1.21.51-2-.08.47-.24 1.53-.27 2.12a20.69 20.69 0 0 0 .58-2.29l.11-.06c-.05.48-.1 1-.12 1.48-.09.08-.15.15-.19.19l.18-.07v.1s0 .31-.05.47c0 0 .08-.28.17-.62.23-.12.52-.29.84-.5v.28c-.26.23-.52.46-.74.67a5.65 5.65 0 0 0 .71-.38l-.16 1.29c.23-.15.48-1.14.56-1.4 0 0-.05.41-.07.76l-.16.15.15-.07a1.41 1.41 0 0 0 .06.67c.16-.1.33-.67.4-.91 0 .13 0 .48-.07.68.08-.24.16-.5.23-.76l.37-.22c0 .15 0 .3-.05.43l-.15.13.15-.09a.34.34 0 0 0 0 .1c-.53.45-1.22 1.07-1.15 1.23.32.19 1.93-.92 2.42-1.26v.18c-.66.53-1.38 1.08-1.88 1.57a12 12 0 0 0 1.86-1.13 1.78 1.78 0 0 0 0 .35c-.38.35-.74.68-1 1a3.63 3.63 0 0 0-.61.55 15.59 15.59 0 0 0 2.93-1.89V81.25l.11-.09c.15-.1.29-.22.44-.33 0 .11 0 .24-.05.38l-1.89 1.6s.94-.62 1.4-.94l-.5.43.94-.68v.15a18.47 18.47 0 0 0-2.7 2.51c.9.06 4.23-2.6 5.13-3.33-.4.37-1.87 1.72-2.66 2.47 0 0 .82-.51 1.21-.78 0 0-1.52 1.25-2.28 1.89 0 0 1.19-.75 1.76-1.16h-.05a18.87 18.87 0 0 0-2.15 2c1.73-.53 5-3.27 6.4-4.42l-3.18 3 1.05-.71-1.2 1s1.66-1.21 2.47-1.85c-1.57 1.33-3.3 2.63-4.81 4 0 0 .88-.5 1.3-.77l-.1.09a41.44 41.44 0 0 0 7-5.19s-3.17 2.77-4.82 4.16a85.64 85.64 0 0 0 12.13-11.1s3.13-3.28 4.61-5c-2.33 2.75-4.68 5.35-7.19 7.93a142.82 142.82 0 0 1-10.93 10 70.9 70.9 0 0 0 11.26-9.64 140.26 140.26 0 0 0 17.2-21.93c.62-.92 1.22-1.85 1.82-2.79a193.62 193.62 0 0 0 18.17-37.69c-2 4.9-4.07 9.63-6.35 14.42a240 240 0 0 0 9.34-24.13zM15.57 69zm-2.9 11.23c0-.1.05-.19.07-.28l.39-.3v.18zm.39.19l-.62.51v-.08c.24-.09.44-.25.62-.39zm-3.55-1.65c0-.12.05-.24.08-.37l.27-.2v.29zm.19.6v.21l-.48.42.09-.32c.13-.12.26-.22.39-.31zm-3.76-1.43h-.05c.09-.4.15-.73.19-.87s-.08.38-.14.87zM5.6 74l.25-.16v.35l-.28.25c-.02-.17 0-.31.03-.44zm4.28 4.07l-.27.23.27-.3zm-.12-.45l.21-.17v.05zm.19-1a1.29 1.29 0 0 0 0-.19l.16-.12v.16zM9.66 76V75.99zm.47-.38l.13-.11v.12l-.14.13zm.3-1.62c0-.09 0-.2.07-.32h.06v.28zm-2.37-.5l-.06.09zm-.24.84l.18-.15-.21.19zm0 1.49l-.08.59-.16.14-.31.26.18-.73zm1.64-1.26c0 .09 0 .21-.06.37.02-.11.05-.25.07-.37zm-.3 1.84v.29l-.1.09.06-.32zm-.2.7l.1-.07-.06.39-.12.11c.04-.15.12-.29.12-.43zm.53-.36h.05v.26l-.1-.01zm-.13 1.11v.06l-.11.08v-.07zm-.09.65v.08l-.18.15v-.11zm-.2.26l.18-.12-.06.4-.22.2c.03-.16.08-.32.11-.48zm1.12-.77v.23zm.93-.72l.09-.07v.11l-.1.09zm-.06 1.15l-.22.19zm1.23-2.1l.15-.12-.15.13zm.8-4.78v-.14l.05-.06v.14zm1.44-10.29s-.15 1.61-.23 2.41c0 0 0 .24-.09.61l-.09.1c.2-1.55.38-2.9.41-3.16zM9.65 62.8s.62-4.4.88-6.6l.09-.74c0 .11-.27 3-.41 4.52 0 0-.88 5.6-1.55 9.81.16-1 .32-2 .47-3-.01-.01.47-3.67.52-3.99zm-2.77 3.51c.14 0 1.36-11.71 1.45-12.73.3-2.66.56-5.29.77-7.95-.21 2.87-.55 7.29-.79 10 0 0-.63 5.54-1 8.31l-.18 1.23-1 6.5-.05.4-.12.11c.35-2.07.66-4.12.92-5.87zm-1.72 1.77s-.49 3.32-.8 5.52L4 74c.07-.39.14-.76.2-1.07-.03-.04.67-3.24.96-4.85zM3.77 75c0-.11 0-.21.07-.32l.4-.23v.16zm2.11-1.4v.1l-.25.25v-.18zM5 76.85l.3-1.27a4.56 4.56 0 0 0 .39-.27l-.13 1.07zm.86 1.4v-.23h.06v.2zm.83-.92v-.08.08zm.53 1.78l-.58.46c.08-.29.15-.6.21-.82L7 78c.2-.12.4-.26.61-.4l-.16 1.29zm1.54-.76l.17-.13v.09l-.17.14zm-.32 1.44l.15-.79.21-.16c0 .21-.05.42-.08.62s-.21.22-.31.33zm.36.21l.3-.19a3.11 3.11 0 0 1 0 .32l-.38.33zm-.14.52l.39-.26-.41.34s.01-.09.02-.12zm.52-.34zm.67-.72l.05-.18.12-.09v.15zm.59.83l.3-.2-.32.26zm-.2.65c.23-.16.43-.32.62-.46a1.48 1.48 0 0 1 0 .21l-.76.67a3.92 3.92 0 0 0 .14-.46zm.71-.34c0-.07 0-.15.07-.24l.12-.09.15-.11a.78.78 0 0 1 0 .16zm.56-.59l.4-.29-.42.37zm.6.5l.13-.1v.29l-.19.17zm-.21.86l.28-.21v.09l-.32.27a.83.83 0 0 1 .04-.19zm1.49-1.12zm.18-.74a1.21 1.21 0 0 0 0-.18l.77-.63v.11zm2-1.79v-.06c.84-.74 1.66-1.49 2.48-2.28-.83.77-1.65 1.54-2.48 2.3zm2.66-11.44c-.32.35-.64.68-1 1v-.08c.07-.06.13-.13.2-.2s.75-.81.81-.88.67-.68 1-1c-.31.36-.66.74-1.01 1.12z"
                            fill="#00accc"></path>
                    </svg>
                </svg>
            </g>
        </g>
    </svg>