<svg xmlns="http://www.w3.org/2000/svg" width="120" height="170">
        <g transform="scale(3)" >
            <g transform="translate(0, 0)">
                <svg x="0" y="0" width="43.30634415154334" height="50">
                    <svg xmlns="http://www.w3.org/2000/svg" viewBox="0 0 78.09 90.14">
                        <path fill="#4f9b43"
                            d="M78.09 8.81c-5.66 6.89-9.6 15-13.21 23.1-.13-.06-4.71 11.62-5.11 12.7 0 0 .8-2.3 1.21-3.45.55-1.41 1.12-2.82 1.69-4.22 3.68-8.85 7.5-17.32 12.71-25.4A88.87 88.87 0 0 0 69.55 21a97.85 97.85 0 0 1 7.7-12.92 65.4 65.4 0 0 0-7.76 11.39s2.92-5.54 4.58-8.19a77.89 77.89 0 0 0-4.84 7.5 85.31 85.31 0 0 1 7.2-11.48 65 65 0 0 0-5.93 8.5A138.17 138.17 0 0 0 63.66 29s-2.63 5.6-3.84 8.44c0 0 3.11-7.57 4.8-11.3 0 0 2.25-4.74 3.45-7.07 1.57-3 3.17-5.81 5-8.65 0 0-.57.8-.83 1.19 0 0 2.15-3.37 3.34-5a61.07 61.07 0 0 0-6.14 8.51s.78-1.42 1.18-2.13C65 21.69 61 30.5 57.23 40.09 55 45.92 53 51.68 51.08 57.64c0 0-2.37 7.15-3.48 10.74l-.33 1.09c.4-1.33 3-9.94 4.46-14.4 0 0 2.61-7.61 4-11.38 0 0 .47-1.24.71-1.85 1.43-3.6 2.89-7.16 4.42-10.72 3.8-8.65 7.74-17 13.19-24.77a75.24 75.24 0 0 0-8.86 13.53A115.53 115.53 0 0 1 71.31 9.1a90.93 90.93 0 0 0-5 8c1.57-2.93 3.15-5.67 5-8.44a94.87 94.87 0 0 0-6.64 10.92c.08-.16 2.69-5.34 4.14-7.88v.08s.79-1.31 1.19-1.95c-1.3 1.92-2.48 3.82-3.64 5.83A168.07 168.07 0 0 0 55.2 39s-2.06 5.51-2.2 6c0 0-2.2 5.93-3.23 8.92l-.33.93c0-.12 1.29-4 1.93-5.93 2.4-6.35 4.87-12.58 7.56-18.82 3.88-8.83 7.89-17.31 13.48-25.22a67.09 67.09 0 0 0-5.58 7.73A85 85 0 0 1 72 4.51a61.07 61.07 0 0 0-4.62 6.25c0-.08 1.45-2.36 2.2-3.49a109.55 109.55 0 0 0-9.35 16.24l-1 2a144.46 144.46 0 0 1 8.95-17 121 121 0 0 0-9.34 16.86 146.23 146.23 0 0 1 8.93-17 122.39 122.39 0 0 0-9.58 17.42s-1 2-1.46 3.06a164.9 164.9 0 0 1 9.84-19.63c-1.87 2.85-3.49 5.67-5.09 8.68a104.21 104.21 0 0 1 8.81-14.85c-5.05 6.07-8.52 12.35-12 19.41 2.15-4.68 4.35-9.11 6.92-13.58-1.62 2.41-3.07 4.81-4.48 7.35C62.39 13.05 64.06 10.06 66 7c-5.91 8.85-10 17.83-14 27.64-.09 0-4.09 10.81-4.45 11.82 0 0 .76-2.27 1.15-3.41q1.29-3.45 2.65-6.89a210.11 210.11 0 0 1 11.77-25.44 81.09 81.09 0 0 1 6.12-9.23 81.57 81.57 0 0 0-8.5 12.73s3.13-5.83 4.89-8.63a107.81 107.81 0 0 0-9.12 15.48c2.16-4.65 4.35-9 6.91-13.48-5.78 8.74-9.8 17.41-13.73 27.13 0 0 1.41-3.76 2.15-5.64 0 0-1.55 3.42-2.29 5.14 1.07-2.64 2.18-5.26 3.32-7.88C57.06 16.94 61.33 8.22 67.6 0a81.64 81.64 0 0 0-8.74 13.05c1.58-3 3.19-5.91 5-8.81-6.31 8.86-10.54 17.84-14.7 27.84-1.72 4.29-3.31 8.55-4.84 12.81-.34-5.64-.65-10.67-.7-11.67 0 0-1-14.11-1.68-21.14 0 0 .11 6.74.23 10.11 0 0-.29-3.86-.45-5.78 0 0 .23 6.14.37 9.2 0 0-.17-1.68-.26-2.51 0 0 .07 4.36.13 6.53v-.6s-.63-8.88-1.22-15.52l.13-.33c0 .06-.09.13-.14.2-.12-1.27-.23-2.45-.33-3.47 0 0 0 1.15.07 2.91a16.11 16.11 0 0 0-1 1.92v-.6l.53-1.46c-.22.34-.43.73-.64 1.12v-.3c.22-.64.39-1.24.27-1.31s-.21.12-.35.31c-.06-.8-.12-1.55-.17-2.19 0 0 0 1 .09 2.31-.13.18-.26.4-.4.64v-.53a4.43 4.43 0 0 0 .12-.5l-.14.19c0-.36-.06-.7-.08-1v1.08a13.07 13.07 0 0 0-1 1.58 15.24 15.24 0 0 0 .88-2.34c-.15 0-.74 1.21-.8 1.34l-.16.31c0-.44-.08-.86-.12-1.24.07-.17.12-.34.16-.47l-.12.19s.17-.54 0-.6-.85 1.1-.94 1.27c0 0 .11-.37.16-.56-.23.35-.46.74-.7 1.14 0-.57-.08-1.1-.12-1.55 0 0 0 .62.07 1.64-.13.22-.26.46-.38.69 0-.31-.05-.6-.07-.87v.92c-.46.85-.93 1.75-1.38 2.69v-.53l2.09-5.43c-.46.17-1.59 2.54-1.81 3 0-.05.88-2 1.16-2.94 0 0-.7 1.26-1 1.9 0 0 .59-1.38.79-2.07A27.33 27.33 0 0 0 34 13.33c.11-.29.6-1.62.8-2.35s.1-.27.14-.4-.52.92-.76 1.39c-.09.16-.17.33-.25.48-.05-.46-.09-.89-.13-1.31l.55-1.43c-.17 0-.42.43-.62.75v-.2a1.6 1.6 0 0 0 .14-.78c-.19 0-.51.61-.6.76 0 0 .16-.42.22-.64a21 21 0 0 0-1.12 2.05v-.36c.25-.62.47-1.2.62-1.66-.22.37-.44.77-.66 1.19v-.21.22c-.37.71-.73 1.46-1.08 2.2v-.1c.5-1.17 1.07-2.55 1.38-3.46-.5.83-1 1.78-1.45 2.74v-.4c.35-.87.68-1.7.91-2.34 0 0-.54 1-1 1.83v-.11a9.66 9.66 0 0 0 .83-2.66c-.58.27-2.44 4.32-2.73 5 0 0 1.24-3 1.64-4.49 0 0-.81 1.3-1.17 2 0-.05.69-1.63 1-2.44a108.45 108.45 0 0 0-5.05 10.74s-2.98 6.66-3.22 7.27l.86-2.29 1.8-4.21L29.7 9.16a7.87 7.87 0 0 0 .48-1.4 14 14 0 0 0-1.27 2.3 17.67 17.67 0 0 0 .68-2.13 29.3 29.3 0 0 0-2.47 4.46A46.23 46.23 0 0 0 28.71 8c-1.93 2.88-3.95 7.67-5.34 10.86 0 0 .77-2 1.14-3 0 0-.9 1.81-1.33 2.72 0 0 1.19-2.73 1.79-4.09l3.21-7.67a14 14 0 0 0-1.27 2.3A16 16 0 0 0 27.59 7c-1.61 2.11-4 7.7-5.07 10.19C17.87 28 13.64 38.86 9.59 49.92 5.89 60.19 2.75 70.14 0 80.7c0 0 3.26-10 5-14.93 0 0-1.77 5.72-2.6 8.59 0 0 2.95-9 4.51-13.41 0 0-.75 2.44-1.12 3.66 0 0 2.26-6.12 3.41-9.18l-.29.84C5.63 65.7 2.86 74.84.44 84.51c2.72-8.76 5.61-17.38 8.65-26l.12-.35s-2.15 6.8-3.14 10.23c0 0 2.23-6.2 3.37-9.29 0 0-1.73 5.32-2.54 8 0 0-3.52 11.5-5.05 17.32 0 0 2.46-8.14 3.76-12.19 0 0 1.69-4.88 2.55-7.31 0 0-3.74 12-5.37 18 0 0 3.43-11 5.27-16.53 0 0-.4 1.26-.59 1.89 3.29-9.59 6.76-19 10.43-28.46l.55-1.43s.45-1 .67-1.58l-.69 1.75C15 47.43 11.87 56.2 9 65.28c0 0-2.18 7-3.19 10.46 0 0 1-3 1.49-4.57 0 0-2.29 8-3.31 12 2.92-9.27 6-18.37 9.31-27.51 0 0-2.5 7.67-3.65 11.54 0 0 2.52-6.94 3.81-10.4 0 0-3.56 10.92-5.13 16.44 0 0-2 6.93-3 10.42 2.35-7.78 4.86-15.42 7.53-23.1l.56-1.56c-2.58 7.55-4.91 15-7 22.68 0 0 3.88-12.24 6-18.32 0 .11-.95 3-1.4 4.41 0 0 2.76-7.84 4.19-11.75-2.51 7.07-4.69 14.08-6.68 21.34 0 0 3.57-10.4 5.42-15.57 0 0-2.45 7.55-3.58 11.36 0 0 .78-2.35 1.18-3.52C9.77 75.41 8.17 81.12 6.73 87c0 0 3.92-12.35 6-18.49l-.14.5s.77-2.13 1.16-3.19c0 0-3.58 11.37-5.15 17.12 0 0 3.7-11.73 5.69-17.55l1.28-3.48s-3.34 10.57-4.79 15.92c0 0-1.62 5.67-2.37 8.53 0 0 4-13.15 6.25-19.67 0 0 4.2-11.67 6.37-17.48v-.1c-3.11 8.44-5.92 16.77-8.5 25.39 0 0 1.36-4.08 2.06-6.12 0 0-.45 1.43-.67 2.15 0 0 2.07-6 3.16-9-2.89 8.56-5.38 16.9-7.56 25.68 2.71-8.72 5.59-17.3 8.61-25.92 0 0-2.13 6.73-3.11 10.13l1.56-4.34s-2.26 7.18-3.3 10.8c0 0 1.79-5.5 2.72-8.24l-.08.27s-2.83 9.55-4.06 14.38c0 0 5.68-17.11 8.73-25.59 0 0-2.14 6.63-3.13 10 0 0 .8-2.19 1.21-3.28 0 .1-.92 2.85-1.36 4.25 0 0 1.77-5.06 2.68-7.58-2.48 7.28-4.71 14.47-6.76 21.88 0 0 1.78-5.71 2.71-8.56l-.16.54s4.87-13.72 7.41-20.53c0 0-3 8.64-4.35 13 0 0 6.2-17.09 9.56-25.69v.4c-.51 1.31-1 2.61-1.53 3.92-3.6 9.51-6.81 18.86-9.74 28.59 3.2-9.58 6.59-19 10.18-28.42 0 0 .44-1.2 1.16-3 .37 5.67 1.13 16.16 1.24 17.5 0 .67.07 1.34.11 2-.19 0 1.49 19.3 1.68 21.14 0 0-.08-4.83-.14-7.24 0 0 .32 4.61.61 8.47 0 .29-.07.57-.08.81 0-.07.08-.16.12-.25.07.91.14 1.76.19 2.48 0 0 0-1-.11-2.65.26-.6.52-1.37.76-2.11v.37c-.09.39-.17.77-.23 1.06l.38-.9c.14 1.51.27 3 .39 4.1v-1.6a9.21 9.21 0 0 0 .87-2.15c.1 1.39.21 2.73.29 3.78 0 0-.07-2-.16-4.18.2-.63.41-1.31.62-2 0 .32 0 .63.07.92v.17-.11c0 .35.06.69.08 1v-1.1c0 .19 0 .61.11 1.15a19.25 19.25 0 0 0-.58 2.88 15.88 15.88 0 0 0 .66-2c0 .24 0 .48.07.73-.1.49-.17.94-.21 1.29.09-.2.18-.44.27-.69.07.69.13 1.37.19 1.89v-2.33c.36-1.11.7-2.46 1-3.36l-.19.81c.07-.22.13-.45.2-.67 0 .55.09 1.07.14 1.55-.15.63-.3 1.29-.4 1.77 0 0 .29-.89.43-1.37a14.76 14.76 0 0 0-.41 2.67 10.71 10.71 0 0 0 .54-1.28c.06.69.11 1.19.13 1.42V86.5c.2-.58.43-1.26.66-2V84.43c0-.41.25-.81.37-1.23v-.06c.19-.63.38-1.28.56-1.91v.55c-.17.74-.33 1.45-.45 2 0 0 .21-.63.49-1.52l.09 1c-.25 1.09-.48 2.15-.63 3a16.57 16.57 0 0 0-.42 2.14 32.7 32.7 0 0 0 1.18-3.61v.17c-.31 1.26-.57 2.47-.69 3.34 0 0 .34-1.13.76-2.5.11 1.17.18 2 .22 2.35v-2.9c.08-.28.17-.56.25-.85 0 .52.1 1 .14 1.56-.12.63-.22 1.22-.29 1.73.13-.32.24-.65.36-1 0 .53.1 1 .14 1.45V86.4c.5-1.4.95-2.87 1.38-4.29v.14c-.3 1.21-.78 3.11-1 4.28 0 0 .28-.89.41-1.34 0 0-.91 3.75-.61 3.84.35-.1 1.41-3.85 1.53-4.25v.23c0 .07.12-.34.25-.73v.14a41.73 41.73 0 0 0-1 4.55c.39-1 .76-2.28 1.1-3.5 0 .29 0 .59.08.87-.14.67-.25 1.32-.33 1.84a6.49 6.49 0 0 0-.18 1.19 12.58 12.58 0 0 0 .62-1.82l.06.56v-.68c.41-1.36.85-3 1-3.38 0 0 .17-.55.43-1.43q0 .36.06.75a258.7 258.7 0 0 0-1 4c0-.06.5-1.64.74-2.44 0 0-.15.64-.23 1 0 0 .23-.73.51-1.67v.38c-.57 2.28-1.16 4.91-.93 5.1a11.29 11.29 0 0 0 1.1-2.82c0 .57.09 1.12.13 1.58 0 0 0-.7-.07-1.76.72-2.29 1.5-5.11 1.64-5.63 0 0-.85 3.56-1.19 5.36 0 0 .46-1.32.68-2 0 0-.7 2.79-1 4.2 0 0 .61-2 .89-2.93v.11a24.24 24.24 0 0 0-.92 4.06A35.33 35.33 0 0 0 45.72 85l.13 1.89c-.29 1.16-.53 2.29-.67 3.27 0 0 .42-1.28.62-1.91v.18l.15-.45V87.94c1.27-3.56 2.37-7.34 3.47-11 0 0-1.54 5.61-2.21 8.43 0 0 4.14-13.72 6.33-20.55 0 0 1.76-4.95 2.65-7.43q-2.07 6-4 12.08c-1.89 6.2-3.81 12.66-5.21 19 1.94-6.26 3.74-12.58 5.66-18.86 3-9.68 6.14-19.12 9.69-28.62.37-.94.74-1.87 1.12-2.8a183.13 183.13 0 0 1 12.39-25.55A77.58 77.58 0 0 0 71.12 20a83.1 83.1 0 0 1 6.97-11.19zm-37.65 4.37v.53c-.28.43-.54.9-.76 1.3.03-.01.51-1.15.76-1.83zM39.32 17c0 .54 0 1.06.06 1.5 0 0 .07 3.37.12 5.06 0 0-.2-2.81-.42-5.94zm-.08-1.94l-.3.65v-.49l.32-.75zm0-1.25v.24c-.11.23-.23.46-.34.68v-.06c.1-.24.18-.55.3-.86zM38.75 15l-.09.18zm-.08-2v.48c-.26.47-.49.94-.55 1s.33-.86.55-1.58zm.1 2.64v.49c-.23.48-.45 1-.65 1.42v-.34zm-.69 1.63v.37c0 .13-.05.13-.08.19v-.31zm-.37 3.9c.11 3.4.24 7 .36 9.6 0 0-.47-5.41-.74-8.12 0 0 .1 5 .17 7.45 0 0-.28-3.5-.58-6.95zm-.09-2.81v.31c-.31.69-.53 1.2-.6 1.36 0 0-.13.28-.32.71v-.17zm-.85-4.34s.4-.91.68-1.68v1.37c-.28.56-.72 1.48-1.16 2.39 0-.27 0-.56-.07-.85.23-.54.42-.99.55-1.33zm-.66 64.78c-.11.47-.33 1.39-.55 2.39v-.47c.25-.88.44-1.62.55-1.92zm-.62-1.23v-.13c.08-.27.17-.53.24-.76l-.14.55s-.05.16-.1.34zm.3-51.81c.08-.2.14-.35.19-.49.07 1.84.16 4.19.23 5.72 0 .01-.21-2.3-.42-5.23zm.29-.72v.63c.04-.03.02-.27 0-.67zm.06-9.59v.87c-.09.2-.19.39-.28.58v-.75zM36 22.2v.17l-.09.22-.3.7v-.16l.24-.56zm-.37-5.5l.13-.3v.78l-.41.89-.2.38v-.54c.14-.44.31-.86.45-1.21zm-.5 7.51v.21l-.1.23v-.2zm-.13-6v.57l-.36.71v-.38c.08-.27.2-.58.36-.87zm-.38.9v.42l-.08.16v-.35zm-.7 1.66V21c0 .11-.11.23-.17.34v-.12zm-.1-3.63v.41l-.3.64v-.26zm-.16-6.81v.18a2.86 2.86 0 0 0-.17.29zm0 1v1.43l-.51 1c0-.34-.05-.65-.08-.95zm-.2 10.51l-.23.48.23-.54zm-1.08-7.2v.6c-.3.61-.61 1.23-.9 1.86V17zm.23 5.36v.16l-.36.81v-.15c.11-.21.23-.49.35-.76zm-.44 1.17l-.28.64v-.11c.09-.21.19-.42.28-.64zm.08-9.88v.38c-.37.75-.73 1.52-1 2.2v-.07c.27-.72.65-1.61.99-2.45zm-1 11.78v.21l-.13.3a1.05 1.05 0 0 0-.1.19v-.18zM31 14.33v.12l-.41.81zm-.07-3v.09c-.09.17-.17.33-.23.46zm0 .72v.43c-.4.85-.79 1.7-1.15 2.5v-.19c.33-.79.75-1.79 1.14-2.73zm-1.15 9l-.69 1.58v.07-.08c.25-.54.49-1.09.73-1.63zm-.16-5.9v.19c-.14.27-.48.92-.66 1.29.04-.04.28-.63.65-1.49zm-1.35 9.24v.18c-.18.42-.35.84-.49 1.16v-.23zm-2 4.59l1.39-3.13a2.44 2.44 0 0 1 0 .27l-.09.23s-1.81 4.2-2.68 6.32l-.3.72zm0 6.91s-2.59 6.45-3.83 9.7l-.47 1.23c.31-.81 3.35-8.86 4.91-13l1-2.52v.37c-.88 2.09-1.53 3.86-1.66 4.21zM28.14 31v-.34l.36-.9v.34zm.14-6.43v-.17l.39-.86v.13c-.13.25-.26.56-.39.87zm.39 5.1v-.31l.15-.38v.34zm.19 12l.15-.35v.3l-.14.38zm.08 1.42l.14-.37c0 .5.05 1 .08 1.43 0 0 .07 3.77.12 5.65 0 0-.18-3.62-.34-6.71zm.46-15.3v-.36.32zm.36-.9v-.27c.06-.17.13-.33.19-.48v.3zM31 13.35v.07c-.27.57-.52 1.13-.77 1.66.03-.14.34-.84.77-1.73zM30.23 20l.13-.29v.05zm.22-.53c.23-.51.44-1 .63-1.43v.08l-.63 1.39zm.37 4.84v-.17zm1.29 61.14c-.2-4.67-.55-12.74-.82-17.54l-.57-9.17s.16 1.62.25 2.43.12 2 .17 3l1.33 19.43c-.15.64-.27 1.26-.36 1.82zm.4-2.06c-.08-2-.2-5.19-.29-7.12 0 0 .24 2.87.52 6.11-.08.32-.16.62-.23.98zm0-68.38v-.62l.58-1.51v1c-.16.35-.35.72-.54 1.12zm.4 4.45v-.14c.08-.2.17-.39.24-.56l.13-.32v.22zm.17 13c.08 1.7.16 3.37.23 4.65v.08c0-.09-.13-2-.3-4.56zm-.06 44.71s.11 1.25.26 2.82c0 .19-.11.39-.16.59.01-1.24-.02-2.43-.06-3.39zm.17 6l.2-.64s-.09.35-.2.81zm.07 3.35v-2.63c.1-.36.22-.74.33-1.12.06.53.11 1 .15 1.49-.21.97-.37 1.74-.44 2.33zm.35-17.38s-.07-4.15-.13-6.22c0 0 .36 5.51.58 8.27 0 0 .18 2.74.32 4.71-.13.46-.27.94-.4 1.44-.06-2.34-.22-5.92-.33-8.13zm.05 9.33v-1.03c-.03.07 0 .47.04 1.1zm.07 5.64v-1.84c.07-.22.14-.44.2-.66 0 .45.07.91.1 1.38s-.18.83-.26 1.19zm.39-3.28c.08-.28.16-.53.23-.76 0 0-.11.47-.22 1zm.06 1.4v-.88c.14-.41.32-1 .53-1.59v.46c-.14.7-.32 1.39-.49 2.08zm.83 1.29zm.3-10.86c-.13-4-.3-8-.52-12.06.06 0-.78-11.36-.87-12.41 0 0-.28-5.51-.44-8.27l-.06-1s.49 7.41.8 11.11c0 0 .35 5.35.54 8 0 0 .05.87.07 1.31q.16 3.81.38 7.64c-.06 0 .08 2.11.31 5-.05.16-.1.31-.14.47zm.06 8.52l.07-.24v.39c0 .13-.06.28-.1.42.08-.12.07-.32.07-.5zm0 1.3c.24-.72.53-1.6.78-2.38v.23c-.23.95-.54 2.23-.72 3 0 0 0 .14-.05.21zm.07 3.08v-.65c.22-.66.61-1.81.82-2.51-.15.86-.48 2.08-.75 3.23zm.73-63.89v-.17l.15-.36v.18zm.17 2.52l.1-.21c.05 1.26.11 2.45.16 3.44v1.14c.11.07-.01-1.78-.19-4.3zm.43 59.83v-1.67c.09-.28.17-.56.26-.84l.09 1.25c-.01.24-.12.72-.28 1.33zm.38-1.54v-1.35c0-.11.07-.23.11-.35 0 .38 0 .76.08 1.15-.02.25-.07.43-.12.62zm.14-16.5c-.08-1.78-.16-3.57-.26-5.36 0 0-.23-3.81-.25-4.16 0 0-.19-4.2-.3-6.3v-.67s.24 2.78.37 4.17q.18 6.09.52 12.16s.01.18-.01.23zm.11 15.54V80.3l.21-.68q0 .48.09.93c-.06.39-.15.71-.23 1.04zm.39-1.51v-1c0-.3.28-.91.41-1.37l.06.7c-.12.66-.26 1.17-.4 1.74zm1.15 1L39 81c0 .19 0 .4.06.65 0 .1-.05.21-.07.31.01-.31.01-.59.01-.86zm.06 3V84l.18-.65c.02.26-.05.5-.11.74zm-.4-60.47s-.15-1.94-.3-4l.57-1.45c.07 1.63.14 3.26.19 4.49 0 0-.06-.86-.1-1.3 0 0 .57 14.13 1 21.18l.04 1.23v1.36-1.48zM40.07 82s-.16.64-.32 1.3v-.19zm-.38-.23c.1-.39.2-.74.29-1.06-.09.29-.19.66-.29 1.04zm.3-3.64l.09-.26zm-.16-5.32l-.06.21v-.34a1.09 1.09 0 0 1 .05-.17zm-.45 1.6v-.44c0-.14.07-.24.11-.35V74zm.15 3.46v-.1c.07-.26.13-.48.19-.67-.04.14-.1.4-.19.75zm0 4.33zm0-2.89c.08-.25.16-.49.23-.73v.14c-.06.26-.14.57-.23.91zm0 4.26l.07-.25v.2l-.09.35zm0 1.67v-1.3l.1-.3c0 .33 0 .65.07.95s-.01.41-.06.63zm.16-.73v-1l.34-1.15V83c-.03.46-.12 1-.23 1.49zm.51-5l-.23.82zm-.19-8c0-.14.08-.28.13-.42v.23c0 .15-.09.3-.13.45a2.17 2.17 0 0 1 .11-.29zm.06 11.36v-.69l.29-1v.43c.01.39-.09.82-.18 1.23zm.35-1.46v-.44c.12-.38.24-.78.36-1.17v.2zm-.27-60.45s.06 4.36.12 6.53c0 0-.3-3.69-.46-5.54 0 0-.18-2.55-.39-5.45l.93-2.35c.1 4 .27 9.94.46 13.61V28c.1-.16-.31-4.76-.55-7.07zM41 79.68v-.22l.15-.49v.14zm.09 2.59v-.16l.24-.81c-.07.2-.16.54-.27.97zM42.1 65v.13a2.58 2.58 0 0 1-.08.26v-.13a2.58 2.58 0 0 1 .08-.26zm-.3 18.58v-.08zm.06 2.22v-.92c.15-.55.3-1.08.44-1.58 0 0 .23-.71.43-1.35v.12c-.22.93-.57 2.35-.87 3.76zm.91-3.9v-.1l.15-.47s-.06.25-.15.6zm.71.09l.2-.64v.55c0 .18-.15.55-.22.82zm.09 2.1v-.34l.27-.89v.17c-.09.36-.18.72-.27 1.09zm.77-2.94s-.18.64-.42 1.56v-.17c.15-.52.3-1 .42-1.4zm-.45.13v-.6c.14-.46.28-.94.44-1.45v.36zm.62-2.26v-.38c.21-.7.42-1.42.64-2.14v.19c-.21.77-.42 1.56-.64 2.36zm2.06-7.26v-.07c-.05.16-.3 1-.67 2.28v-.07c.26-.75.48-1.48.67-2.11zm-.08 11.94s-.36 1.45-.53 2.18c0 0 .85-2.77 1.27-4.17-.39 1.44-.91 3.24-1.34 5 0-.58 0-1.27-.08-2 .1-.35.2-.7.31-1 0 .18 0 .35.05.51v-.64c.48-1.65.9-3.18 1.16-4.06 0 0-1 4-1.39 6-.02-.12.37-1.25.55-1.82zM60.98 41.16z">
                        </path>
                    </svg>
                </svg> <!---->
            </g>
        </g>
    </svg>
